<svg width="16" height="17" viewBox="0 0 16 17" fill="none" xmlns="http://www.w3.org/2000/svg">
<path d="M5.30982 10.3148L4.66536 15.1668L7.7243 13.3315C7.82407 13.2716 7.87395 13.2417 7.9272 13.23C7.9743 13.2196 8.02309 13.2196 8.07019 13.23C8.12345 13.2417 8.17333 13.2716 8.2731 13.3315L11.332 15.1668L10.6882 10.3143M12.6654 6.50016C12.6654 9.07749 10.576 11.1668 7.9987 11.1668C5.42137 11.1668 3.33203 9.07749 3.33203 6.50016C3.33203 3.92283 5.42137 1.8335 7.9987 1.8335C10.576 1.8335 12.6654 3.92283 12.6654 6.50016Z" stroke="#FE622E" stroke-linecap="round" stroke-linejoin="round"/>
<path d="M7 5.3L8.2 4.5V8.5M7.2 8.5H9.2" stroke="#FE622E" stroke-linecap="round" stroke-linejoin="round"/>
</svg>
