<svg width="16" height="17" viewBox="0 0 16 17" fill="none" xmlns="http://www.w3.org/2000/svg">
<path d="M9.01836 6.06807C8.63674 6.34013 8.16974 6.50016 7.66536 6.50016C6.3767 6.50016 5.33203 5.45549 5.33203 4.16683C5.33203 2.87816 6.3767 1.8335 7.66536 1.8335C8.50069 1.8335 9.23349 2.27244 9.6457 2.93226M3.9987 13.8916H5.73889C5.96578 13.8916 6.19129 13.9186 6.41124 13.9726L8.24996 14.4194C8.64893 14.5166 9.06455 14.5261 9.46768 14.4478L11.5007 14.0522C12.0377 13.9476 12.5318 13.6905 12.9189 13.3138L14.3573 11.9146C14.7681 11.5157 14.7681 10.8685 14.3573 10.4689C13.9875 10.1091 13.4018 10.0686 12.9835 10.3737L11.3071 11.5967C11.067 11.7722 10.7749 11.8667 10.4745 11.8667H8.8557L9.88608 11.8667C10.4668 11.8667 10.9373 11.409 10.9373 10.8441V10.6396C10.9373 10.1705 10.6091 9.76147 10.1414 9.64808L8.55109 9.26132C8.29229 9.19855 8.02723 9.16683 7.76079 9.16683C7.11759 9.16683 5.95329 9.69937 5.95329 9.69937L3.9987 10.5168M13.332 4.8335C13.332 6.12216 12.2874 7.16683 10.9987 7.16683C9.71003 7.16683 8.66536 6.12216 8.66536 4.8335C8.66536 3.54483 9.71003 2.50016 10.9987 2.50016C12.2874 2.50016 13.332 3.54483 13.332 4.8335ZM1.33203 10.2335L1.33203 14.1002C1.33203 14.4735 1.33203 14.6602 1.40469 14.8028C1.46861 14.9283 1.5706 15.0303 1.69604 15.0942C1.83865 15.1668 2.02533 15.1668 2.3987 15.1668H2.93203C3.3054 15.1668 3.49208 15.1668 3.63469 15.0942C3.76013 15.0303 3.86212 14.9283 3.92604 14.8028C3.9987 14.6602 3.9987 14.4735 3.9987 14.1002V10.2335C3.9987 9.86013 3.9987 9.67344 3.92604 9.53084C3.86212 9.40539 3.76013 9.30341 3.63469 9.23949C3.49208 9.16683 3.3054 9.16683 2.93203 9.16683L2.3987 9.16683C2.02533 9.16683 1.83865 9.16683 1.69604 9.23949C1.5706 9.30341 1.46861 9.40539 1.40469 9.53084C1.33203 9.67344 1.33203 9.86013 1.33203 10.2335Z" stroke="#033AA5" stroke-linecap="round" stroke-linejoin="round"/>
</svg>
