<svg width="16" height="17" viewBox="0 0 16 17" fill="none" xmlns="http://www.w3.org/2000/svg">
<path d="M1.66636 6.5H14.333M6.66636 2.5L5.33302 6.5L7.99969 14.1667L10.6664 6.5L9.33302 2.5M8.40941 14.0083L14.3818 6.84143C14.4831 6.71997 14.5337 6.65924 14.553 6.59144C14.5701 6.53167 14.5701 6.46833 14.553 6.40856C14.5337 6.34076 14.4831 6.28003 14.3818 6.15857L11.4929 2.6919C11.4342 2.62136 11.4048 2.58609 11.3687 2.56074C11.3368 2.53827 11.3012 2.52159 11.2635 2.51145C11.221 2.5 11.175 2.5 11.0832 2.5H4.91616C4.82434 2.5 4.77843 2.5 4.73588 2.51145C4.69819 2.52159 4.66257 2.53827 4.63064 2.56074C4.59461 2.58609 4.56522 2.62136 4.50644 2.6919L1.61755 6.15857C1.51633 6.28003 1.46572 6.34076 1.44638 6.40855C1.42933 6.46832 1.42933 6.53167 1.44638 6.59144C1.46572 6.65924 1.51633 6.71997 1.61755 6.84143L7.58997 14.0083C7.73068 14.1772 7.80103 14.2616 7.88526 14.2924C7.95916 14.3194 8.04023 14.3194 8.11412 14.2924C8.19835 14.2616 8.26871 14.1772 8.40941 14.0083Z" stroke="#D1428C" stroke-linecap="round" stroke-linejoin="round"/>
</svg>
