<svg width="16" height="17" viewBox="0 0 16 17" fill="none" xmlns="http://www.w3.org/2000/svg">
<path d="M12.6654 6.5V12.3667C12.6654 13.1134 12.6654 13.4868 12.52 13.772C12.3922 14.0229 12.1882 14.2268 11.9374 14.3547C11.6521 14.5 11.2788 14.5 10.532 14.5H5.46536C4.71863 14.5 4.34526 14.5 4.06004 14.3547C3.80916 14.2268 3.60519 14.0229 3.47736 13.772C3.33203 13.4868 3.33203 13.1134 3.33203 12.3667V4.63333C3.33203 3.8866 3.33203 3.51323 3.47736 3.22801C3.60519 2.97713 3.80916 2.77316 4.06004 2.64532C4.34526 2.5 4.71863 2.5 5.46536 2.5H8.66536M12.6654 6.5L8.66536 2.5M12.6654 6.5H10.7987C10.052 6.5 9.67859 6.5 9.39338 6.35468C9.14249 6.22684 8.93852 6.02287 8.81069 5.77199C8.66536 5.48677 8.66536 5.1134 8.66536 4.36667V2.5M7.99932 9.83333H8.00599M5.41667 14.5C5.7127 13.3498 6.75676 12.5 7.99932 12.5C9.24188 12.5 10.2859 13.3498 10.582 14.5M8.66599 9.83333C8.66599 10.2015 8.36751 10.5 7.99932 10.5C7.63113 10.5 7.33266 10.2015 7.33266 9.83333C7.33266 9.46514 7.63113 9.16667 7.99932 9.16667C8.36751 9.16667 8.66599 9.46514 8.66599 9.83333Z" stroke="#45732B" stroke-linejoin="round"/>
</svg>
