<svg width="16" height="17" viewBox="0 0 16 17" fill="none" xmlns="http://www.w3.org/2000/svg">
<path d="M7.33333 14.5002H6.53333C5.41323 14.5002 4.85318 14.5002 4.42535 14.2822C4.04903 14.0905 3.74307 13.7845 3.55132 13.4082C3.33333 12.9804 3.33333 12.4203 3.33333 11.3002V7.01851M14 8.50021L10.3778 4.4762C9.55407 3.56102 9.14217 3.10343 8.65709 2.9345C8.23103 2.78612 7.76733 2.78616 7.34129 2.9346C6.85623 3.1036 6.44441 3.56125 5.62076 4.47655L2 8.50021M13.3166 13.8059C12.4054 14.7316 10.928 14.7316 10.0168 13.8059C9.56114 13.3431 9.33333 12.7365 9.33333 12.1298C9.33333 11.5232 9.56114 10.9166 10.0168 10.4537C10.0168 10.4537 10.2083 10.9446 10.7917 11.2409C10.7917 10.6483 10.9375 9.75946 11.6625 9.16688C12.25 9.75947 12.8599 9.98983 13.3166 10.4537C13.7722 10.9166 14 11.5232 14 12.1298C14 12.7365 13.7722 13.3431 13.3166 13.8059Z" stroke="#049361" stroke-linecap="round" stroke-linejoin="round"/>
</svg>
