<svg width="16" height="17" viewBox="0 0 16 17" fill="none" xmlns="http://www.w3.org/2000/svg">
<path d="M5.9987 6.50016H6.00536M9.9987 10.5002H10.0054M10.6654 5.8335L5.33203 11.1668M4.88788 3.04596C5.42377 3.0032 5.93251 2.79247 6.34168 2.44378C7.29651 1.63007 8.70088 1.63007 9.65572 2.44378C10.0649 2.79247 10.5736 3.0032 11.1095 3.04596C12.3601 3.14575 13.3531 4.13879 13.4529 5.38934C13.4957 5.92523 13.7064 6.43397 14.0551 6.84314C14.8688 7.79798 14.8688 9.20235 14.0551 10.1572C13.7064 10.5664 13.4957 11.0751 13.4529 11.611C13.3531 12.8615 12.3601 13.8546 11.1095 13.9544C10.5736 13.9971 10.0649 14.2079 9.65572 14.5566C8.70088 15.3703 7.29651 15.3703 6.34168 14.5566C5.93251 14.2079 5.42377 13.9971 4.88788 13.9544C3.63733 13.8546 2.64429 12.8615 2.54449 11.611C2.50173 11.0751 2.291 10.5664 1.94231 10.1572C1.1286 9.20235 1.1286 7.79798 1.94231 6.84314C2.291 6.43397 2.50173 5.92523 2.54449 5.38934C2.64429 4.13879 3.63733 3.14575 4.88788 3.04596ZM6.33203 6.50016C6.33203 6.68426 6.18279 6.8335 5.9987 6.8335C5.8146 6.8335 5.66536 6.68426 5.66536 6.50016C5.66536 6.31607 5.8146 6.16683 5.9987 6.16683C6.18279 6.16683 6.33203 6.31607 6.33203 6.50016ZM10.332 10.5002C10.332 10.6843 10.1828 10.8335 9.9987 10.8335C9.8146 10.8335 9.66536 10.6843 9.66536 10.5002C9.66536 10.3161 9.8146 10.1668 9.9987 10.1668C10.1828 10.1668 10.332 10.3161 10.332 10.5002Z" stroke="#806339" stroke-linecap="round" stroke-linejoin="round"/>
</svg>
