<svg width="16" height="17" viewBox="0 0 16 17" fill="none" xmlns="http://www.w3.org/2000/svg">
<path d="M9.33464 6.50001C9.0013 6.41734 8.45802 6.41429 8.0013 6.41734M8.0013 6.41734C7.84858 6.41836 7.94091 6.41186 7.73464 6.41734C7.19635 6.43413 6.66907 6.65785 6.66797 7.29168C6.6668 7.96691 7.33463 8.16668 8.0013 8.16668C8.66797 8.16668 9.33464 8.32081 9.33464 9.04168C9.33464 9.58341 8.79631 9.82078 8.12537 9.89938C7.59203 9.89938 7.33464 9.91668 6.66797 9.83335M8.0013 6.41734L8.0013 5.50008M8.0013 9.89966V10.8334M13.3346 8.50008C13.3346 11.4742 9.69466 13.6292 8.42892 14.2887C8.29201 14.3601 8.22356 14.3957 8.1286 14.4142C8.05464 14.4286 7.94797 14.4286 7.874 14.4142C7.77904 14.3957 7.71059 14.3601 7.57369 14.2887C6.30794 13.6292 2.66797 11.4742 2.66797 8.50008V5.97848C2.66797 5.44547 2.66797 5.17897 2.75514 4.94988C2.83215 4.7475 2.95729 4.56693 3.11974 4.42376C3.30363 4.2617 3.55317 4.16813 4.05224 3.98098L7.62677 2.64053C7.76537 2.58855 7.83467 2.56257 7.90596 2.55226C7.96919 2.54313 8.03341 2.54313 8.09665 2.55226C8.16794 2.56257 8.23724 2.58855 8.37583 2.64053L11.9504 3.98098C12.4494 4.16813 12.699 4.2617 12.8829 4.42376C13.0453 4.56693 13.1705 4.7475 13.2475 4.94988C13.3346 5.17897 13.3346 5.44547 13.3346 5.97848V8.50008Z" stroke="#BB2B10" stroke-linecap="square"/>
</svg>
