<svg width="16" height="17" viewBox="0 0 16 17" fill="none" xmlns="http://www.w3.org/2000/svg">
<path d="M7.52047 2.80205C7.67412 2.49076 7.75095 2.33511 7.85525 2.28538C7.946 2.24211 8.05142 2.24211 8.14217 2.28538C8.24647 2.33511 8.3233 2.49076 8.47695 2.80205L9.93474 5.75536C9.9801 5.84726 10.0028 5.89321 10.0359 5.92889C10.0653 5.96048 10.1005 5.98607 10.1396 6.00425C10.1837 6.02479 10.2344 6.0322 10.3358 6.04702L13.5967 6.52364C13.9401 6.57383 14.1118 6.59893 14.1912 6.6828C14.2604 6.75577 14.2929 6.85603 14.2797 6.95569C14.2646 7.07022 14.1403 7.19129 13.8917 7.43342L11.533 9.73078C11.4595 9.8024 11.4227 9.83821 11.399 9.88081C11.378 9.91854 11.3645 9.95998 11.3593 10.0028C11.3534 10.0513 11.3621 10.1018 11.3795 10.203L11.936 13.4479C11.9947 13.7902 12.0241 13.9613 11.9689 14.0628C11.9209 14.1512 11.8356 14.2132 11.7367 14.2315C11.6231 14.2525 11.4694 14.1717 11.1621 14.0101L8.24695 12.4771C8.15612 12.4293 8.11071 12.4054 8.06286 12.396C8.0205 12.3877 7.97692 12.3877 7.93456 12.396C7.88671 12.4054 7.8413 12.4293 7.75047 12.4771L4.83531 14.0101C4.52797 14.1717 4.37431 14.2525 4.26068 14.2315C4.16182 14.2132 4.07651 14.1512 4.02852 14.0628C3.97336 13.9613 4.00271 13.7902 4.06141 13.4479L4.61796 10.203C4.63531 10.1018 4.64398 10.0513 4.63811 10.0028C4.63291 9.95998 4.61944 9.91854 4.59844 9.88081C4.57471 9.83821 4.53795 9.8024 4.46442 9.73078L2.10574 7.43342C1.85714 7.19129 1.73284 7.07022 1.71772 6.95569C1.70456 6.85603 1.73707 6.75577 1.8062 6.6828C1.88565 6.59893 2.05735 6.57383 2.40073 6.52364L5.66157 6.04702C5.76298 6.0322 5.81368 6.02479 5.85784 6.00425C5.89694 5.98607 5.93214 5.96048 5.96149 5.92889C5.99464 5.89321 6.01732 5.84726 6.06268 5.75536L7.52047 2.80205Z" stroke="#F50100" stroke-linecap="round" stroke-linejoin="round"/>
</svg>
