<svg width="16" height="17" viewBox="0 0 16 17" fill="none" xmlns="http://www.w3.org/2000/svg">
<path d="M6.5 10.5H5.33203C4.08952 10.5 3.46826 10.5 2.97821 10.703C2.3248 10.9736 1.80567 11.4928 1.53502 12.1462C1.33203 12.6362 1.33203 13.2575 1.33203 14.5M10.332 2.69384C11.3093 3.08943 11.9987 4.04754 11.9987 5.16667M8.9987 5.16667C8.9987 6.63943 7.80479 7.83333 6.33203 7.83333C4.85927 7.83333 3.66536 6.63943 3.66536 5.16667C3.66536 3.69391 4.85927 2.5 6.33203 2.5C7.80479 2.5 8.9987 3.69391 8.9987 5.16667Z" stroke="#657898" stroke-linecap="round" stroke-linejoin="round"/>
<path d="M10.668 14.5V12.1299C10.668 11.9505 10.668 11.8608 10.7043 11.7923C10.7363 11.732 10.7873 11.683 10.85 11.6523C10.9213 11.6174 11.0146 11.6174 11.2013 11.6174H12.1346C12.3213 11.6174 12.4147 11.6174 12.486 11.6523C12.5487 11.683 12.5997 11.732 12.6316 11.7923C12.668 11.8608 12.668 11.9505 12.668 12.1299V14.5M11.3405 8.65923L9.07977 10.3488C8.92864 10.4617 8.85308 10.5182 8.79864 10.5889C8.75042 10.6516 8.7145 10.7221 8.69264 10.7972C8.66797 10.8819 8.66797 10.9739 8.66797 11.1578V13.4751C8.66797 13.8338 8.66797 14.0132 8.74063 14.1502C8.80455 14.2708 8.90653 14.3688 9.03198 14.4302C9.17458 14.5 9.36127 14.5 9.73464 14.5H13.6013C13.9747 14.5 14.1614 14.5 14.304 14.4302C14.4294 14.3688 14.5314 14.2708 14.5953 14.1502C14.668 14.0132 14.668 13.8338 14.668 13.4751V11.1578C14.668 10.9739 14.668 10.8819 14.6433 10.7972C14.6214 10.7221 14.5855 10.6516 14.5373 10.5889C14.4829 10.5182 14.4073 10.4617 14.2562 10.3488L11.9954 8.65923C11.8783 8.57171 11.8197 8.52795 11.7551 8.51113C11.698 8.49629 11.6379 8.49629 11.5809 8.51113C11.5162 8.52795 11.4576 8.57171 11.3405 8.65923Z" stroke="#657898" stroke-linecap="round" stroke-linejoin="round"/>
</svg>
