<svg width="24" height="18" viewBox="0 0 24 18" fill="none" xmlns="http://www.w3.org/2000/svg">
<rect width="24" height="18" rx="2" fill="#E31D1C"/>
<path fill-rule="evenodd" clip-rule="evenodd" d="M12.019 12.0864C10.413 11.6908 9.15517 10.3466 9.16977 8.37606C9.18343 6.5315 10.3002 4.97236 12.0657 4.55029C13.8311 4.12822 15.3855 5.02418 15.3855 5.02418C14.8976 3.87232 13.2024 3.0631 11.8127 3.06543C9.22574 3.06976 6.46808 5.1677 6.44431 8.37606C6.41967 11.7023 9.39735 13.5966 12.0162 13.5922C14.1157 13.5887 15.1115 12.1523 15.3178 11.5413C15.3178 11.5413 13.625 12.4821 12.019 12.0864ZM15.679 7.74524L14.0789 8.33299L15.8843 8.96989L15.8535 10.8729L17.0432 9.44522L19.0082 9.58801L17.451 8.24945L18.4733 6.8216L16.8087 7.38183L15.6189 6.05914L15.679 7.74524Z" fill="#F7FCFF"/>
</svg>
