<svg width="24" height="18" viewBox="0 0 24 18" fill="none" xmlns="http://www.w3.org/2000/svg">
<g clip-path="url(#clip0_4405_11459)">
<mask id="mask0_4405_11459" style="mask-type:alpha" maskUnits="userSpaceOnUse" x="0" y="0" width="24" height="18">
<path d="M21.7143 0.428711H2.28571C1.02335 0.428711 0 1.45206 0 2.71443V15.2859C0 16.5482 1.02335 17.5716 2.28571 17.5716H21.7143C22.9767 17.5716 24 16.5482 24 15.2859V2.71443C24 1.45206 22.9767 0.428711 21.7143 0.428711Z" fill="white"/>
</mask>
<g mask="url(#mask0_4405_11459)">
<path d="M21.7143 0.428711H2.28571C1.02335 0.428711 0 1.45206 0 2.71443V15.2859C0 16.5482 1.02335 17.5716 2.28571 17.5716H21.7143C22.9767 17.5716 24 16.5482 24 15.2859V2.71443C24 1.45206 22.9767 0.428711 21.7143 0.428711Z" fill="white"/>
<path fill-rule="evenodd" clip-rule="evenodd" d="M0 0.428711H10.2857V8.42871H0V0.428711Z" fill="#444379"/>
<path fill-rule="evenodd" clip-rule="evenodd" d="M1.14453 1.57129V2.71415H2.28739V1.57129H1.14453ZM3.43025 1.57129V2.71415H4.5731V1.57129H3.43025ZM5.71596 1.57129V2.71415H6.85882V1.57129H5.71596ZM8.00167 1.57129V2.71415H9.14453V1.57129H8.00167ZM6.85882 2.71415V3.857H8.00167V2.71415H6.85882ZM4.5731 2.71415V3.857H5.71596V2.71415H4.5731ZM2.28739 2.71415V3.857H3.43025V2.71415H2.28739ZM1.14453 3.857V4.99986H2.28739V3.857H1.14453ZM3.43025 3.857V4.99986H4.5731V3.857H3.43025ZM5.71596 3.857V4.99986H6.85882V3.857H5.71596ZM8.00167 3.857V4.99986H9.14453V3.857H8.00167ZM1.14453 6.14272V7.28557H2.28739V6.14272H1.14453ZM3.43025 6.14272V7.28557H4.5731V6.14272H3.43025ZM5.71596 6.14272V7.28557H6.85882V6.14272H5.71596ZM8.00167 6.14272V7.28557H9.14453V6.14272H8.00167ZM6.85882 4.99986V6.14272H8.00167V4.99986H6.85882ZM4.5731 4.99986V6.14272H5.71596V4.99986H4.5731ZM2.28739 4.99986V6.14272H3.43025V4.99986H2.28739Z" fill="#A7B6E7"/>
<path fill-rule="evenodd" clip-rule="evenodd" d="M10.2857 0.428711V1.57157H24V0.428711H10.2857ZM10.2857 2.71443V3.85728H24V2.71443H10.2857ZM10.2857 5.00014V6.143H24V5.00014H10.2857ZM10.2857 7.28585V8.42871H24V7.28585H10.2857ZM0 9.57157V10.7144H24V9.57157H0ZM0 11.8573V13.0001H24V11.8573H0ZM0 14.143V15.2859H24V14.143H0ZM0 16.4287V17.5716H24V16.4287H0Z" fill="#ED4C49"/>
</g>
</g>
<defs>
<clipPath id="clip0_4405_11459">
<rect width="24" height="17.1429" fill="white" transform="translate(0 0.428711)"/>
</clipPath>
</defs>
</svg>
