<svg width="24" height="24" viewBox="0 0 24 24" fill="none" xmlns="http://www.w3.org/2000/svg">
<path d="M17.7467 2.81298C18.7114 1.8165 20.3055 1.80361 21.2862 2.78436C22.2401 3.73823 22.2578 5.27921 21.3262 6.25481L18.5475 9.16457C18.3297 9.39265 18.2208 9.50668 18.1537 9.64024C18.0943 9.75847 18.059 9.88732 18.0497 10.0193C18.0393 10.1684 18.0747 10.3221 18.1457 10.6293L19.8735 18.1169C19.9463 18.4323 19.9827 18.59 19.971 18.7426C19.9606 18.8776 19.9229 19.0091 19.8601 19.1291C19.7892 19.2647 19.6748 19.3792 19.4459 19.608L19.0751 19.9788C18.469 20.585 18.1659 20.888 17.8557 20.9429C17.5849 20.9908 17.3062 20.925 17.0854 20.761C16.8325 20.5733 16.6969 20.1666 16.4259 19.3534L14.4161 13.3241L11.0708 16.6695C10.8711 16.8691 10.7712 16.969 10.7045 17.0866C10.6453 17.1907 10.6053 17.3047 10.5865 17.423C10.5652 17.5565 10.5807 17.6968 10.6119 17.9775L10.7956 19.6309C10.8268 19.9116 10.8424 20.0519 10.8211 20.1854C10.8023 20.3037 10.7623 20.4177 10.7031 20.5219C10.6363 20.6394 10.5365 20.7393 10.3368 20.939L10.1393 21.1365C9.66623 21.6095 9.4297 21.8461 9.16686 21.9146C8.93631 21.9746 8.69189 21.9504 8.4776 21.8463C8.23329 21.7276 8.04774 21.4493 7.67664 20.8926L6.10832 18.5401C6.04202 18.4407 6.00887 18.391 5.97038 18.3459C5.9362 18.3058 5.8989 18.2685 5.85884 18.2343C5.81374 18.1958 5.76401 18.1627 5.66456 18.0964L3.31208 16.5281C2.75543 16.157 2.4771 15.9714 2.35839 15.7271C2.25425 15.5128 2.23005 15.2684 2.29014 15.0378C2.35864 14.775 2.59517 14.5385 3.06823 14.0654L3.26573 13.8679C3.46542 13.6682 3.56526 13.5684 3.68284 13.5016C3.787 13.4424 3.90095 13.4024 4.01925 13.3836C4.15278 13.3623 4.29312 13.3779 4.57379 13.4091L6.22718 13.5928C6.50785 13.6239 6.64819 13.6395 6.78172 13.6182C6.90002 13.5994 7.01397 13.5594 7.11813 13.5002C7.23571 13.4334 7.33555 13.3336 7.53524 13.1339L10.8806 9.7886L4.85128 7.77884C4.03806 7.50776 3.63144 7.37222 3.44365 7.11932C3.27966 6.89848 3.21389 6.61984 3.2618 6.34898C3.31666 6.03879 3.61973 5.73572 4.22588 5.12957L4.59665 4.7588C4.82554 4.52991 4.93999 4.41546 5.07558 4.34457C5.19559 4.28183 5.3271 4.24411 5.46212 4.23371C5.61467 4.22197 5.77238 4.25836 6.08779 4.33115L13.5469 6.05249C13.8569 6.12401 14.0119 6.15978 14.1615 6.14914C14.306 6.13886 14.4465 6.09733 14.5733 6.02742C14.7047 5.95501 14.8153 5.84074 15.0366 5.6122L17.7467 2.81298Z" stroke="white" stroke-width="1.5" stroke-linecap="round" stroke-linejoin="round"/>
</svg>
