<svg width="16" height="16" viewBox="0 0 16 16" fill="none" xmlns="http://www.w3.org/2000/svg">
<path d="M1.24609 6.5H14.7461M4.24609 1.25V2.75M11.7461 1.25V2.75M3.64609 14.75H12.3461C13.1862 14.75 13.6062 14.75 13.9271 14.5865C14.2093 14.4427 14.4388 14.2132 14.5826 13.931C14.7461 13.6101 14.7461 13.1901 14.7461 12.35V5.15C14.7461 4.30992 14.7461 3.88988 14.5826 3.56901C14.4388 3.28677 14.2093 3.0573 13.9271 2.91349C13.6062 2.75 13.1862 2.75 12.3461 2.75H3.64609C2.80602 2.75 2.38598 2.75 2.06511 2.91349C1.78286 3.0573 1.55339 3.28677 1.40958 3.56901C1.24609 3.88988 1.24609 4.30992 1.24609 5.15V12.35C1.24609 13.1901 1.24609 13.6101 1.40958 13.931C1.55339 14.2132 1.78286 14.4427 2.06511 14.5865C2.38598 14.75 2.80601 14.75 3.64609 14.75Z" stroke="#657898" stroke-linecap="round" stroke-linejoin="round"/>
</svg>
