<svg width="148" height="58" viewBox="0 0 148 58" fill="none" xmlns="http://www.w3.org/2000/svg">
<path d="M0 55.4536V46.3999H1.07469V50.4316H5.80682V46.3999H6.88151V55.4536H5.80682V51.4042H1.07469V55.4536H0Z" fill="#0077BC"/>
<path d="M11.6851 55.595C11.0438 55.595 10.4905 55.4506 10.0254 55.1618C9.56319 54.87 9.2064 54.4633 8.95506 53.9417C8.70661 53.4171 8.58239 52.807 8.58239 52.1115C8.58239 51.416 8.70661 50.803 8.95506 50.2725C9.2064 49.739 9.55597 49.3235 10.0038 49.0258C10.4544 48.7252 10.9802 48.5749 11.5811 48.5749C11.9278 48.5749 12.2701 48.6338 12.6082 48.7517C12.9462 48.8696 13.2538 49.0612 13.5312 49.3264C13.8085 49.5887 14.0295 49.9365 14.1942 50.3697C14.3589 50.803 14.4412 51.3364 14.4412 51.97V52.4121H9.3104V51.5103H13.4012C13.4012 51.1271 13.3261 50.7853 13.1758 50.4847C13.0285 50.184 12.8176 49.9468 12.5432 49.7729C12.2716 49.599 11.9509 49.5121 11.5811 49.5121C11.1738 49.5121 10.8213 49.6152 10.5238 49.8215C10.2291 50.0249 10.0023 50.2901 9.84342 50.6173C9.68452 50.9444 9.60508 51.2951 9.60508 51.6694V52.2706C9.60508 52.7834 9.69175 53.2181 9.86509 53.5747C10.0413 53.9284 10.2854 54.1981 10.5974 54.3837C10.9094 54.5665 11.272 54.6578 11.6851 54.6578C11.9538 54.6578 12.1965 54.6195 12.4132 54.5429C12.6327 54.4633 12.8219 54.3454 12.9808 54.1892C13.1397 54.0301 13.2625 53.8326 13.3492 53.5969L14.3372 53.8798C14.2332 54.2216 14.0584 54.5223 13.8129 54.7816C13.5673 55.038 13.264 55.2384 12.9028 55.3828C12.5417 55.5243 12.1358 55.595 11.6851 55.595Z" fill="#0077BC"/>
<path d="M15.2862 57.3987V54.481H15.8409C15.9767 54.3366 16.0937 54.1804 16.1919 54.0124C16.2901 53.8444 16.3754 53.6455 16.4476 53.4156C16.5227 53.1828 16.5863 52.8999 16.6383 52.5668C16.6903 52.2308 16.7365 51.8256 16.7769 51.3511L17.0023 48.6633H21.2317V54.481H22.2544V57.3987H21.2317V55.4536H16.3089V57.3987H15.2862ZM17.0023 54.481H20.209V49.6359H17.9556L17.7823 51.3511C17.7101 52.0614 17.6205 52.6818 17.5136 53.2122C17.4067 53.7427 17.2363 54.1657 17.0023 54.481Z" fill="#0077BC"/>
<path d="M23.6119 55.4536V48.6633H26.3333C27.0497 48.6633 27.6188 48.8284 28.0406 49.1584C28.4624 49.4885 28.6733 49.9247 28.6733 50.467C28.6733 50.8796 28.5534 51.1993 28.3136 51.4263C28.0739 51.6503 27.7662 51.802 27.3906 51.8816C27.6362 51.917 27.8745 52.0054 28.1056 52.1469C28.3396 52.2883 28.5332 52.4828 28.6863 52.7304C28.8394 52.975 28.916 53.2756 28.916 53.6322C28.916 53.98 28.8293 54.2909 28.656 54.565C28.4826 54.8391 28.2342 55.0557 27.9106 55.2148C27.5871 55.374 27.1999 55.4536 26.7493 55.4536H23.6119ZM24.5825 54.4987H26.7493C27.1017 54.4987 27.3776 54.4132 27.577 54.2423C27.7763 54.0713 27.876 53.8385 27.876 53.5438C27.876 53.1931 27.7763 52.9175 27.577 52.7171C27.3776 52.5138 27.1017 52.4121 26.7493 52.4121H24.5825V54.4987ZM24.5825 51.5103H26.3333C26.6077 51.5103 26.8432 51.472 27.0396 51.3953C27.2361 51.3158 27.3863 51.2038 27.4903 51.0594C27.5972 50.912 27.6506 50.7381 27.6506 50.5377C27.6506 50.2518 27.5336 50.0278 27.2996 49.8658C27.0656 49.7007 26.7435 49.6182 26.3333 49.6182H24.5825V51.5103Z" fill="#0077BC"/>
<path d="M31.4868 53.9151L34.6936 48.6633H35.8722V55.4536H34.8496V50.2017L31.6601 55.4536H30.4641V48.6633H31.4868V53.9151Z" fill="#0077BC"/>
<path d="M37.3294 55.4536L40.0334 52.0054L37.364 48.6633H38.5774L40.7961 51.5633H41.3508V48.6633H42.3735V51.5633H42.9108L45.1296 48.6633H46.3429L43.6909 52.0054L46.3776 55.4536H45.1469L42.8935 52.5359H42.3735V55.4536H41.3508V52.5359H40.8308L38.5601 55.4536H37.3294Z" fill="#0077BC"/>
<path d="M48.8617 53.9151L52.0685 48.6633H53.2472V55.4536H52.2245V50.2017L49.0351 55.4536H47.8391V48.6633H48.8617V53.9151Z" fill="#0077BC"/>
<path d="M58.7604 54.0389L61.0831 48.6633H62.0538L59.1764 55.4536H58.3444L55.519 48.6633H56.4724L58.7604 54.0389ZM56.143 48.6633V55.4536H55.1203V48.6633H56.143ZM61.3778 55.4536V48.6633H62.4005V55.4536H61.3778Z" fill="#0077BC"/>
<path d="M66.9766 55.595C66.3757 55.595 65.8485 55.4491 65.3949 55.1574C64.9442 54.8656 64.5918 54.4574 64.3376 53.9328C64.0862 53.4082 63.9606 52.7952 63.9606 52.0938C63.9606 51.3865 64.0862 50.7691 64.3376 50.2415C64.5918 49.714 64.9442 49.3043 65.3949 49.0126C65.8485 48.7208 66.3757 48.5749 66.9766 48.5749C67.5775 48.5749 68.1033 48.7208 68.554 49.0126C69.0076 49.3043 69.36 49.714 69.6114 50.2415C69.8656 50.7691 69.9927 51.3865 69.9927 52.0938C69.9927 52.7952 69.8656 53.4082 69.6114 53.9328C69.36 54.4574 69.0076 54.8656 68.554 55.1574C68.1033 55.4491 67.5775 55.595 66.9766 55.595ZM66.9766 54.6578C67.4331 54.6578 67.8086 54.5385 68.1033 54.2997C68.398 54.061 68.6161 53.7472 68.7577 53.3581C68.8992 52.9691 68.97 52.5477 68.97 52.0938C68.97 51.6399 68.8992 51.217 68.7577 50.8251C68.6161 50.4331 68.398 50.1163 68.1033 49.8746C67.8086 49.6329 67.4331 49.5121 66.9766 49.5121C66.5202 49.5121 66.1446 49.6329 65.8499 49.8746C65.5553 50.1163 65.3371 50.4331 65.1956 50.8251C65.054 51.217 64.9832 51.6399 64.9832 52.0938C64.9832 52.5477 65.054 52.9691 65.1956 53.3581C65.3371 53.7472 65.5553 54.061 65.8499 54.2997C66.1446 54.5385 66.5202 54.6578 66.9766 54.6578Z" fill="#0077BC"/>
<path d="M74.2579 55.595C73.6339 55.595 73.0965 55.4447 72.6459 55.1441C72.1952 54.8435 71.8485 54.4294 71.6058 53.9019C71.3632 53.3743 71.2418 52.7716 71.2418 52.0938C71.2418 51.4042 71.366 50.7956 71.6145 50.268C71.8658 49.7376 72.2154 49.3235 72.6632 49.0258C73.1139 48.7252 73.6397 48.5749 74.2406 48.5749C74.7086 48.5749 75.1304 48.6633 75.5059 48.8401C75.8815 49.017 76.1892 49.2645 76.4289 49.5828C76.6687 49.9011 76.8175 50.2725 76.8753 50.6969H75.8526C75.7746 50.3874 75.6013 50.1133 75.3326 49.8746C75.0668 49.6329 74.7086 49.5121 74.2579 49.5121C73.8592 49.5121 73.5097 49.6182 73.2092 49.8304C72.9116 50.0396 72.6791 50.3358 72.5115 50.719C72.3468 51.0991 72.2645 51.5456 72.2645 52.0584C72.2645 52.583 72.3454 53.0398 72.5072 53.4289C72.6719 53.8179 72.903 54.12 73.2005 54.3351C73.501 54.5503 73.8534 54.6578 74.2579 54.6578C74.5237 54.6578 74.7649 54.6107 74.9816 54.5164C75.1982 54.4221 75.3817 54.2865 75.5319 54.1097C75.6822 53.9328 75.789 53.7206 75.8526 53.4731H76.8753C76.8175 53.8739 76.6745 54.2349 76.4463 54.5562C76.2209 54.8744 75.9219 55.1279 75.5493 55.3165C75.1795 55.5022 74.749 55.595 74.2579 55.595Z" fill="#0077BC"/>
<path d="M77.846 49.6359V48.6633H83.2541V49.6359H81.0701V55.4536H80.0474V49.6359H77.846Z" fill="#0077BC"/>
<path d="M85.6299 51.1212H87.5367C88.3167 51.1212 88.9132 51.3231 89.3264 51.7269C89.7395 52.1306 89.946 52.642 89.946 53.2609C89.946 53.6676 89.8536 54.0375 89.6687 54.3705C89.4838 54.7006 89.2122 54.9643 88.854 55.1618C88.4958 55.3563 88.0567 55.4536 87.5367 55.4536H84.7459V48.6633H85.7686V54.481H87.5367C87.9411 54.481 88.2733 54.372 88.5333 54.1539C88.7934 53.9358 88.9233 53.6558 88.9233 53.3139C88.9233 52.9544 88.7934 52.6611 88.5333 52.4342C88.2733 52.2073 87.9411 52.0938 87.5367 52.0938H85.6299V51.1212Z" fill="#0077BC"/>
<path d="M94.9349 55.4536V48.6633H97.6563C98.3728 48.6633 98.9419 48.8284 99.3637 49.1584C99.7855 49.4885 99.9964 49.9247 99.9964 50.467C99.9964 50.8796 99.8765 51.1993 99.6367 51.4263C99.3969 51.6503 99.0892 51.802 98.7137 51.8816C98.9592 51.917 99.1976 52.0054 99.4287 52.1469C99.6627 52.2883 99.8563 52.4828 100.009 52.7304C100.162 52.975 100.239 53.2756 100.239 53.6322C100.239 53.98 100.152 54.2909 99.979 54.565C99.8057 54.8391 99.5573 55.0557 99.2337 55.2148C98.9101 55.374 98.523 55.4536 98.0723 55.4536H94.9349ZM95.9056 54.4987H98.0723C98.4248 54.4987 98.7007 54.4132 98.9 54.2423C99.0994 54.0713 99.199 53.8385 99.199 53.5438C99.199 53.1931 99.0994 52.9175 98.9 52.7171C98.7007 52.5138 98.4248 52.4121 98.0723 52.4121H95.9056V54.4987ZM95.9056 51.5103H97.6563C97.9308 51.5103 98.1662 51.472 98.3627 51.3953C98.5591 51.3158 98.7094 51.2038 98.8134 51.0594C98.9202 50.912 98.9737 50.7381 98.9737 50.5377C98.9737 50.2518 98.8567 50.0278 98.6227 49.8658C98.3887 49.7007 98.0666 49.6182 97.6563 49.6182H95.9056V51.5103Z" fill="#0077BC"/>
<path d="M104.873 47.3725V46.3999H111.529V47.3725H108.738V55.4536H107.663V47.3725H104.873Z" fill="#0077BC"/>
<path d="M112.945 57.9999C112.771 57.9999 112.617 57.9852 112.481 57.9557C112.345 57.9292 112.251 57.9026 112.199 57.8761L112.459 56.9566C112.708 57.0214 112.927 57.045 113.118 57.0273C113.309 57.0097 113.478 56.9227 113.625 56.7665C113.775 56.6133 113.913 56.3642 114.037 56.0194L114.227 55.4889L111.766 48.6633H112.875L114.713 54.0743H114.782L116.619 48.6633H117.729L114.903 56.4438C114.776 56.7945 114.619 57.0848 114.431 57.3147C114.243 57.5475 114.025 57.7199 113.777 57.8319C113.531 57.9439 113.254 57.9999 112.945 57.9999Z" fill="#0077BC"/>
<path d="M119.079 57.9999V48.6633H120.067V49.742H120.188C120.263 49.6241 120.367 49.4738 120.5 49.2911C120.636 49.1054 120.829 48.9403 121.081 48.7959C121.335 48.6486 121.679 48.5749 122.112 48.5749C122.673 48.5749 123.167 48.7178 123.594 49.0037C124.022 49.2896 124.355 49.6948 124.595 50.2194C124.835 50.744 124.955 51.3629 124.955 52.0761C124.955 52.7952 124.835 53.4186 124.595 53.9461C124.355 54.4707 124.023 54.8774 123.598 55.1662C123.174 55.4521 122.684 55.595 122.129 55.595C121.702 55.595 121.36 55.5228 121.102 55.3784C120.845 55.231 120.647 55.0645 120.509 54.8789C120.37 54.6902 120.263 54.534 120.188 54.4103H120.101V57.9999H119.079ZM120.084 52.0584C120.084 52.5712 120.158 53.0236 120.305 53.4156C120.452 53.8046 120.668 54.1097 120.951 54.3307C121.234 54.5488 121.581 54.6578 121.991 54.6578C122.418 54.6578 122.775 54.5429 123.061 54.313C123.35 54.0802 123.567 53.7678 123.711 53.3758C123.858 52.9809 123.932 52.5418 123.932 52.0584C123.932 51.581 123.86 51.1507 123.715 50.7676C123.574 50.3815 123.359 50.0765 123.07 49.8525C122.784 49.6256 122.424 49.5121 121.991 49.5121C121.575 49.5121 121.225 49.6197 120.942 49.8348C120.659 50.047 120.445 50.3447 120.301 50.7278C120.156 51.108 120.084 51.5515 120.084 52.0584Z" fill="#0077BC"/>
<path d="M131.75 48.6633V54.481H132.686V57.6462H131.663V55.4536H126.515V48.6633H127.538V54.481H130.727V48.6633H131.75Z" fill="#0077BC"/>
<path d="M135.284 53.9151L138.49 48.6633H139.669V55.4536H138.646V50.2017L135.457 55.4536H134.261V48.6633H135.284V53.9151Z" fill="#0077BC"/>
<path d="M142.565 53.9151L145.772 48.6633H146.95V55.4536H145.928V50.2017L142.738 55.4536H141.542V48.6633H142.565V53.9151Z" fill="#0077BC"/>
<path fill-rule="evenodd" clip-rule="evenodd" d="M109.903 24.4506C109.759 26.8411 106.94 36.9489 106.94 36.9489H101.308C101.308 36.9489 103.857 27.8377 103.797 26.1886C103.743 24.5396 102.255 24.6226 101.368 24.6226C100.48 24.6226 99.1725 24.9548 97.8409 25.7319L95.0879 36.8955H89.4258L93.5824 20.9627H99.0945L98.6747 22.8015C98.6747 22.8015 101.854 20.5 105.027 20.5C108.187 20.5 110.053 22.066 109.903 24.4506Z" fill="#0077BC"/>
<path fill-rule="evenodd" clip-rule="evenodd" d="M82.1431 36.9489H87.6552C87.6552 36.9489 90.6482 25.5539 90.6182 24.5396C90.5882 23.5193 90.3723 20.5 83.0008 20.5C83.0008 20.5 77.7346 20.6246 75.5393 21.3067L74.7056 25.1387H75.2394C75.2394 25.1387 77.7286 24.0294 80.9315 24.0294C84.1344 24.0294 84.9082 24.759 84.8482 25.6725C84.7882 26.592 84.7282 26.503 84.7282 26.503C84.7282 26.503 71.3587 25.8742 71.2388 33.1763C71.2388 33.1763 70.651 37.376 76.577 37.376C76.577 37.376 79.54 37.4116 82.503 35.2228L82.1431 36.9489ZM77.0388 32.4348C77.0688 29.1723 83.9725 29.4215 83.9725 29.4215L83.1747 32.7136C81.4833 34.0008 79.6779 33.989 79.6779 33.989C76.6609 34.1372 77.0388 32.4348 77.0388 32.4348Z" fill="#0077BC"/>
<path fill-rule="evenodd" clip-rule="evenodd" d="M70.1707 25.8686C67.6756 25.8686 66.1641 26.4973 66.1641 26.4973L63.555 37.1153H57.9648L61.9895 21.2655H67.5316L66.9738 23.5433C66.9738 23.5433 70.4586 20.6486 74.6152 21.2418L73.3437 26.1889C73.3377 26.1889 72.6599 25.8686 70.1707 25.8686Z" fill="#0077BC"/>
<path fill-rule="evenodd" clip-rule="evenodd" d="M55.3871 30.3884C55.3871 30.3884 58.7639 30.0859 58.7639 26.4438C58.7639 22.8016 55.9149 20.9331 51.2305 20.9331C46.5461 20.9331 40.0263 22.772 39.5524 30.8452C39.5524 30.8452 38.8147 37.6134 48.2975 37.8388C48.2975 37.8388 53.8096 37.8032 56.1548 36.4448L57.1625 32.3281H56.5627C56.5627 32.3281 53.9836 34.2263 50.2228 34.2263C46.4621 34.2263 44.8606 32.7849 45.0406 30.3944H55.3871V30.3884ZM50.0189 24.1422C53.4857 24.1422 53.1918 26.1057 53.1918 26.5031C53.1918 26.9005 53.0719 27.381 53.0719 27.381L45.5684 27.3513C45.5684 27.3513 46.5521 24.1422 50.0189 24.1422Z" fill="#0077BC"/>
<path fill-rule="evenodd" clip-rule="evenodd" d="M30.6641 37.1211L36.2962 15.0547H41.8983L36.2962 37.1211H30.6641Z" fill="#0077BC"/>
<path fill-rule="evenodd" clip-rule="evenodd" d="M20.3562 37.3463C26.6361 37.3463 31.9143 33.538 31.9683 26.758C32.0283 19.972 24.1769 20.4169 24.1769 20.4169L23.7631 20.3872C14.958 20.3872 12.3789 27.3274 12.3789 30.6789C12.3789 34.0245 14.0703 37.3463 20.3562 37.3463ZM23.4032 23.887C23.4032 23.887 26.1023 23.6616 26.1023 26.758C26.1023 29.8544 25.0286 33.8821 20.998 33.8821C20.998 33.8821 18.1849 34.1965 18.1849 30.6789C18.1849 27.1554 19.9663 23.8633 23.2532 23.8633L23.4032 23.887Z" fill="#0077BC"/>
<path fill-rule="evenodd" clip-rule="evenodd" d="M13.6523 19.2781L9.44772 36.3558H3.37777L7.78628 19.3374H0.46875L1.56038 15.2207H21.9475L20.9458 19.2781H13.6523Z" fill="#0077BC"/>
<path fill-rule="evenodd" clip-rule="evenodd" d="M122.412 20.5C122.412 20.5 126.509 20.5652 128.488 21.8702L127.265 26.159H126.497C126.497 26.159 125.07 24.1659 121.783 24.1659C118.496 24.1659 116.031 26.6157 116.031 29.9909C116.031 33.3661 118.352 33.7102 120.097 33.7102C121.843 33.7102 124.44 32.7848 125.22 31.7823H126.053L124.866 36.1481C124.866 36.1481 122.233 37.3642 118.142 37.3642C114.051 37.3642 110.141 35.3236 110.141 30.3527C110.141 25.3819 114.831 20.583 122.412 20.5Z" fill="#0077BC"/>
<path fill-rule="evenodd" clip-rule="evenodd" d="M139.416 20.9331C134.743 20.9331 128.212 22.772 127.744 30.8392C127.744 30.8392 127.006 37.6074 136.483 37.8329C136.483 37.8329 141.995 37.7973 144.34 36.4389L145.348 32.3222H144.754C144.754 32.3222 142.175 34.2204 138.414 34.2204C134.654 34.2204 133.052 32.7789 133.232 30.3884H143.579C143.579 30.3884 146.955 30.0859 146.955 26.4438C146.955 22.8016 144.1 20.9331 139.416 20.9331ZM141.257 27.381L133.76 27.3513C133.76 27.3513 134.743 24.1422 138.204 24.1422C141.671 24.1422 141.377 26.1057 141.377 26.5031C141.377 26.9005 141.257 27.381 141.257 27.381Z" fill="#0077BC"/>
<path d="M113.519 12.1185L112.505 14.8649H103.988V14.4734C106.495 12.2134 108.259 10.3686 109.278 8.93904C110.298 7.50948 110.814 6.19855 110.814 5.01218C110.814 4.10461 110.532 3.36314 109.974 2.78182C109.41 2.2005 108.745 1.90984 107.965 1.90984C107.257 1.90984 106.615 2.11746 106.052 2.52675C105.488 2.93605 105.068 3.54109 104.804 4.33002H104.408C104.588 3.03095 105.044 2.03441 105.776 1.34039C106.513 0.646364 107.425 0.296387 108.529 0.296387C109.698 0.296387 110.676 0.670091 111.462 1.41157C112.247 2.15305 112.637 3.03095 112.637 4.0453C112.637 4.76898 112.469 5.49266 112.128 6.21634C111.606 7.35525 110.754 8.55941 109.572 9.82882C107.803 11.7389 106.699 12.8896 106.262 13.2811H110.028C110.796 13.2811 111.33 13.2515 111.642 13.1981C111.948 13.1447 112.23 13.0261 112.475 12.854C112.721 12.682 112.937 12.4388 113.123 12.1244H113.519V12.1185Z" fill="#0077BC"/>
<path d="M113.465 7.812C113.465 6.18668 113.717 4.78084 114.209 3.60634C114.7 2.43184 115.366 1.55393 116.188 0.978546C116.824 0.521796 117.483 0.296387 118.167 0.296387C119.271 0.296387 120.267 0.853978 121.148 1.96916C122.246 3.35127 122.798 5.22573 122.798 7.59252C122.798 9.2475 122.558 10.6533 122.072 11.816C121.592 12.9727 120.974 13.815 120.225 14.337C119.475 14.859 118.755 15.12 118.059 15.12C116.68 15.12 115.534 14.3192 114.622 12.7117C113.855 11.3533 113.465 9.72204 113.465 7.812ZM115.552 8.073C115.552 10.0364 115.798 11.644 116.284 12.8837C116.686 13.9277 117.292 14.4497 118.095 14.4497C118.479 14.4497 118.875 14.2777 119.289 13.9396C119.703 13.6015 120.015 13.0261 120.225 12.2312C120.548 11.027 120.716 9.32461 120.716 7.12391C120.716 5.49859 120.548 4.1402 120.207 3.04875C119.949 2.24202 119.619 1.67257 119.217 1.33445C118.923 1.10311 118.575 0.984478 118.161 0.984478C117.681 0.984478 117.25 1.19802 116.872 1.62511C116.362 2.20643 116.014 3.12586 115.828 4.37155C115.648 5.62909 115.552 6.86291 115.552 8.073Z" fill="#0077BC"/>
<path fill-rule="evenodd" clip-rule="evenodd" d="M144.289 12.8544C143.87 12.8544 143.522 12.8069 143.246 12.712C142.97 12.6171 142.838 12.4985 142.844 12.362L142.856 12.0536L142.886 11.7688L142.922 11.5197C143.168 12.1485 143.63 12.4629 144.325 12.4629C144.625 12.4629 144.883 12.3858 145.087 12.2256C145.309 12.0595 145.417 11.8282 145.417 11.5494C145.417 11.2884 145.297 11.057 145.057 10.8613C144.931 10.7545 144.697 10.6121 144.343 10.4283C143.504 9.9893 143.09 9.50882 143.09 8.97496C143.09 8.54193 143.276 8.22755 143.654 8.00807C143.96 7.83605 144.349 7.74707 144.829 7.74707C144.985 7.74707 145.171 7.75893 145.393 7.78266C145.651 7.81232 145.867 7.84791 146.041 7.88943L146.011 8.8148C145.735 8.35212 145.339 8.11484 144.823 8.11484C144.241 8.11484 143.954 8.34025 143.954 8.79107C143.954 9.14698 144.331 9.53848 145.093 9.95964L145.201 10.013C145.675 10.274 145.975 10.4935 146.119 10.6655C146.269 10.8613 146.347 11.0808 146.347 11.3418C146.347 11.7985 146.113 12.1781 145.657 12.4688C145.249 12.7239 144.793 12.8544 144.289 12.8544Z" fill="#0077BC"/>
<path fill-rule="evenodd" clip-rule="evenodd" d="M142.692 8.47634L142.081 8.44668C141.781 8.43482 141.571 8.53566 141.469 8.7492C141.361 8.96275 141.319 9.42543 141.325 10.1432L141.337 11.5134C141.343 11.8278 141.349 12.0354 141.361 12.1422C141.391 12.4388 141.469 12.6345 141.577 12.7117H140.281C140.371 12.6464 140.431 12.5278 140.467 12.3439C140.503 12.1422 140.521 11.81 140.521 11.3355V9.9593C140.521 8.74327 140.443 8.07891 140.281 7.9662L141.133 7.82977C141.259 7.82977 141.319 7.984 141.319 8.28059V8.39329C141.319 8.42295 141.325 8.45854 141.331 8.49414C141.673 7.984 142.075 7.73486 142.53 7.73486C142.938 7.73486 143.142 7.87129 143.142 8.15009C143.142 8.25093 143.106 8.32805 143.028 8.38143C142.932 8.45261 142.824 8.4882 142.692 8.47634Z" fill="#0077BC"/>
<path fill-rule="evenodd" clip-rule="evenodd" d="M138.698 12.3973C138.728 12.5397 138.764 12.6643 138.806 12.777L139.825 12.7117C139.699 12.6346 139.603 12.4507 139.532 12.1482C139.472 11.8635 139.442 11.4423 139.442 10.8966L139.466 10.0899L139.472 9.57973L139.502 8.77894C139.514 8.4171 139.406 8.14423 139.178 7.97221C138.956 7.81205 138.596 7.73494 138.098 7.729C137.624 7.73494 137.192 7.78832 136.802 7.90103C136.227 8.06712 135.945 8.33405 135.945 8.68403C135.945 8.95096 136.083 9.08739 136.359 9.08739C136.563 9.08739 136.736 8.92723 136.91 8.60691L137.03 8.36964C137.102 8.27473 137.198 8.20355 137.312 8.15016C137.432 8.10271 137.57 8.07898 137.72 8.07898C138.356 8.07898 138.674 8.40523 138.674 9.06366C138.674 9.38398 138.584 9.62125 138.41 9.77548C138.308 9.85853 138.062 9.9831 137.666 10.1492C137.066 10.4043 136.67 10.5881 136.491 10.7068C136.029 11.0034 135.801 11.3296 135.801 11.6974C135.801 12.0296 135.957 12.3024 136.269 12.5278C136.551 12.7355 136.874 12.8422 137.234 12.8422C137.888 12.8422 138.374 12.5397 138.674 11.9287C138.662 12.083 138.674 12.2372 138.698 12.3973ZM138.638 10.1017V10.8669C138.638 11.7626 138.296 12.2075 137.606 12.2075C137.36 12.2075 137.162 12.1482 136.994 12.0296C136.808 11.905 136.718 11.727 136.718 11.5016C136.718 11.1635 136.964 10.8551 137.45 10.5881C137.588 10.517 137.984 10.3509 138.638 10.1017Z" fill="#0077BC"/>
<path fill-rule="evenodd" clip-rule="evenodd" d="M133.576 9.59738C134.506 9.60925 135.082 9.57365 135.298 9.5084C135.495 9.45502 135.597 9.34231 135.597 9.17029C135.597 8.71947 135.412 8.36356 135.046 8.10256C134.722 7.85936 134.314 7.74072 133.828 7.74072C133.066 7.74072 132.473 7.99579 132.053 8.5C131.663 8.96268 131.465 9.56772 131.465 10.3151C131.465 11.0388 131.651 11.6261 132.011 12.0887C132.413 12.5989 132.976 12.848 133.702 12.848C134.092 12.848 134.47 12.7472 134.854 12.5455C135.298 12.3023 135.519 12.0116 135.519 11.6617V11.5371C135.082 11.9582 134.596 12.1659 134.068 12.1659C133.552 12.1659 133.144 11.9879 132.85 11.632C132.52 11.2405 132.371 10.766 132.401 10.1965L132.419 9.87618C132.431 9.77534 132.455 9.6745 132.485 9.57959L132.922 9.59738H133.576ZM134.374 8.33984C134.56 8.4822 134.656 8.67795 134.656 8.90929C134.656 9.05165 134.596 9.1525 134.482 9.20588C134.368 9.25334 134.062 9.27706 133.552 9.27706L132.916 9.2652L132.652 9.25334H132.55C132.586 8.93302 132.712 8.66609 132.91 8.45254C133.132 8.21527 133.402 8.09663 133.726 8.09663C133.972 8.1085 134.188 8.18561 134.374 8.33984Z" fill="#0077BC"/>
<path fill-rule="evenodd" clip-rule="evenodd" d="M130.479 11.0449C129.688 12.9668 129.058 14.3074 128.59 15.0489C127.534 16.7217 126.395 17.564 125.171 17.564C124.853 17.564 124.547 17.4987 124.247 17.3801C123.87 17.2259 123.684 17.0242 123.684 16.7513C123.684 16.7335 123.696 16.7217 123.702 16.7039C123.924 16.8403 124.169 16.9471 124.445 17.0005C124.607 17.0301 124.769 17.0479 124.925 17.0479C125.597 17.0479 126.221 16.7632 126.647 16.3064C126.899 16.1997 127.138 16.0098 127.366 15.737C128.29 14.6277 128.752 13.6431 128.752 12.7829C128.752 12.5694 128.608 11.9347 128.32 10.8848C128.038 9.82296 127.684 8.70185 127.264 7.51549C127.018 6.83333 126.881 6.44776 126.839 6.35878C126.593 5.75374 126.371 5.42155 126.173 5.34444L127.366 5.20801H127.528C127.762 5.20801 128.2 6.32319 128.824 8.54762L129.19 9.84669C129.358 10.4517 129.532 11.0331 129.706 11.5966C130.227 10.256 130.641 9.06369 130.941 8.00783C131.253 6.95789 131.409 6.25794 131.409 5.91983C131.409 5.77746 131.397 5.66476 131.379 5.58764C131.361 5.5046 131.319 5.41562 131.259 5.30885H133.058C132.687 5.72408 132.117 6.90451 131.355 8.86201C131.007 9.75771 130.713 10.4814 130.479 11.0449Z" fill="#0077BC"/>
<path fill-rule="evenodd" clip-rule="evenodd" d="M125.004 15.9507C125.028 15.9448 125.058 15.9388 125.082 15.927L125.304 15.838C125.34 15.8202 125.382 15.8024 125.412 15.7787C125.808 15.5473 126.078 15.1677 126.174 14.7406C126.354 13.8864 125.802 13.0441 124.944 12.8662C124.83 12.8424 124.722 12.8306 124.614 12.8306C123.87 12.8306 123.217 13.3585 123.061 14.0822C122.917 14.7762 123.247 15.4702 123.882 15.8083C123.936 15.838 123.996 15.8617 124.056 15.8855C124.128 15.9151 124.206 15.9388 124.296 15.9626C124.476 16.0041 124.68 15.9982 124.866 15.9744L125.004 15.9507Z" fill="#0077BC"/>
<path fill-rule="evenodd" clip-rule="evenodd" d="M125.004 15.9507C125.028 15.9448 125.058 15.9388 125.082 15.927L125.304 15.838C125.34 15.8202 125.382 15.8024 125.412 15.7787C125.808 15.5473 126.078 15.1677 126.174 14.7406C126.354 13.8864 125.802 13.0441 124.944 12.8662C124.83 12.8424 124.722 12.8306 124.614 12.8306C123.87 12.8306 123.217 13.3585 123.061 14.0822C122.917 14.7762 123.247 15.4702 123.882 15.8083C123.936 15.838 123.996 15.8617 124.056 15.8855C124.128 15.9151 124.206 15.9388 124.296 15.9626C124.476 16.0041 124.68 15.9982 124.866 15.9744L125.004 15.9507Z" fill="#0077BC"/>
</svg>
