<svg width="25" height="24" viewBox="0 0 25 24" fill="none" xmlns="http://www.w3.org/2000/svg">
<path d="M17.5 15V17.8C17.5 18.9201 17.5 19.4802 17.282 19.908C17.0903 20.2843 16.7843 20.5903 16.408 20.782C15.9802 21 15.4201 21 14.3 21H8.7C7.5799 21 7.01984 21 6.59202 20.782C6.21569 20.5903 5.90973 20.2843 5.71799 19.908C5.5 19.4802 5.5 18.9201 5.5 17.8V5.57143C5.5 5.04025 5.5 4.77465 5.55014 4.55496C5.7211 3.80597 6.30597 3.2211 7.05496 3.05014C7.27465 3 7.54025 3 8.07143 3H11.5M10.5 18H12.5M19.5 4.50003C19 4.37601 18.1851 4.37145 17.5 4.37601M17.5 4.37601C17.2709 4.37754 17.4094 4.3678 17.1 4.37601C16.2926 4.4012 15.5016 4.73678 15.5 5.68753C15.4982 6.70037 16.5 7.00003 17.5 7.00003C18.5 7.00003 19.5 7.23123 19.5 8.31253C19.5 9.12512 18.6925 9.48118 17.6861 9.59908C16.8861 9.59908 16.5 9.62503 15.5 9.50003M17.5 4.37601L17.5 3M17.5 9.5995V11" stroke="#0E2141" stroke-width="1.5" stroke-linecap="square"/>
</svg>
