<svg width="16" height="17" viewBox="0 0 16 17" fill="none" xmlns="http://www.w3.org/2000/svg">
<path d="M13.9964 2.50001H9.89062V6.51367H13.9964V2.50001Z" stroke="#FF9E74" stroke-miterlimit="10" stroke-linecap="round" stroke-linejoin="round"/>
<path d="M13.9717 8.49634H8V14.5H10.1614" stroke="#FF9E74" stroke-miterlimit="10" stroke-linecap="round" stroke-linejoin="round"/>
<path d="M8 2.49999V6.55078" stroke="#FF9E74" stroke-miterlimit="10" stroke-linecap="round" stroke-linejoin="round"/>
<path d="M2 8.49609H6.10573" stroke="#FF9E74" stroke-miterlimit="10" stroke-linecap="round" stroke-linejoin="round"/>
<path d="M10.125 8.4963V11.564H11.6256" stroke="#FF9E74" stroke-miterlimit="10" stroke-linecap="round" stroke-linejoin="round"/>
<path d="M6.10573 2.5H2V6.51366H6.10573V2.5ZM6.10573 10.4863H2V14.5H6.10573V10.4863Z" stroke="#FF9E74" stroke-miterlimit="10" stroke-linecap="round" stroke-linejoin="round"/>
<path d="M12.2227 8.49628V9.79688" stroke="#FF9E74" stroke-miterlimit="10" stroke-linecap="round" stroke-linejoin="round"/>
<path d="M13.9961 14.5V10.5" stroke="#FF9E74" stroke-miterlimit="10" stroke-linecap="round" stroke-linejoin="round"/>
<path d="M12.2422 14.5H13.9939" stroke="#FF9E74" stroke-miterlimit="10" stroke-linecap="round" stroke-linejoin="round"/>
<path d="M4.05522 5.00342C4.3295 5.00342 4.55185 4.78107 4.55185 4.50679C4.55185 4.23252 4.3295 4.01017 4.05522 4.01017C3.78091 4.01017 3.55859 4.23252 3.55859 4.50679C3.55859 4.78107 3.78091 5.00342 4.05522 5.00342Z" fill="#FF9E74"/>
<path d="M11.9458 5.00342C12.2202 5.00342 12.4425 4.78107 12.4425 4.50679C12.4425 4.23252 12.2202 4.01017 11.9458 4.01017C11.6716 4.01017 11.4492 4.23252 11.4492 4.50679C11.4492 4.78107 11.6716 5.00342 11.9458 5.00342Z" fill="#FF9E74"/>
<path d="M4.05522 12.9897C4.3295 12.9897 4.55185 12.7674 4.55185 12.4931C4.55185 12.2188 4.3295 11.9965 4.05522 11.9965C3.78091 11.9965 3.55859 12.2188 3.55859 12.4931C3.55859 12.7674 3.78091 12.9897 4.05522 12.9897Z" fill="#FF9E74"/>
</svg>
