<svg width="16" height="17" viewBox="0 0 16 17" fill="none" xmlns="http://www.w3.org/2000/svg">
<path d="M12.3333 13.25C12.3333 12.2848 11.5482 11.5 10.5833 11.5H9.26329L9.90543 8.49846C11.0497 7.74949 11.75 6.46463 11.75 5.08333C11.75 2.83159 9.91841 1 7.66667 1C5.41493 1 3.58333 2.83159 3.58333 5.08333C3.58333 6.46518 4.28443 7.75062 5.42791 8.49846L6.0703 11.5H4.75C3.78484 11.5 3 12.2848 3 13.25V14C3 14.5523 3.44772 15 4 15H11.3333C11.8856 15 12.3333 14.5523 12.3333 14V13.25ZM4.75 5.08333C4.75 3.47505 6.05838 2.16667 7.66667 2.16667C9.27495 2.16667 10.5833 3.47505 10.5833 5.08333C10.5833 6.13479 10.0155 7.10805 9.09911 7.6243C8.45096 7.99304 7.64971 8.08513 6.92496 7.90087C6.68287 7.83936 6.44929 7.74651 6.23225 7.62288C5.3178 7.10808 4.75 6.13479 4.75 5.08333ZM6.74154 9.06112C6.75408 9.064 6.76717 9.06484 6.77971 9.06754C6.91372 9.09746 7.04913 9.1207 7.18545 9.13717C7.19942 9.13888 7.21309 9.13991 7.22716 9.14133C7.37299 9.15671 7.51941 9.16667 7.66667 9.16667C7.81392 9.16667 7.96063 9.15671 8.10617 9.14133C8.11999 9.13987 8.13392 9.13888 8.14759 9.13717C8.28474 9.1208 8.4203 9.09732 8.55446 9.06754C8.56675 9.06484 8.57955 9.064 8.5918 9.06112L8.06997 11.5H7.26333L6.74154 9.06112ZM11.1667 13.8333H4.16667V13.25C4.16667 12.9283 4.42829 12.6667 4.75 12.6667H10.5833C10.905 12.6667 11.1667 12.9283 11.1667 13.25V13.8333Z" fill="#447E19"/>
<path d="M8.25 4.49984C8.25 4.17767 8.51117 3.9165 8.83333 3.9165C9.1555 3.9165 9.41667 4.17767 9.41667 4.49984C9.41667 4.822 9.1555 5.08317 8.83333 5.08317C8.51117 5.08317 8.25 4.822 8.25 4.49984Z" fill="#447E19"/>
</svg>
