<svg width="16" height="17" viewBox="0 0 16 17" fill="none" xmlns="http://www.w3.org/2000/svg">
<path d="M11.4654 9.83328C11.65 9.83328 11.7424 9.83328 11.8172 9.87429C11.8789 9.90811 11.9364 9.97163 11.9639 10.0364C11.9972 10.115 11.9888 10.1986 11.9721 10.3657C11.8851 11.2325 11.5868 12.0676 11.0999 12.7963C10.5138 13.6734 9.68088 14.357 8.70634 14.7606C7.73181 15.1643 6.65945 15.2699 5.62488 15.0641C4.59032 14.8584 3.64001 14.3504 2.89413 13.6045C2.14825 12.8586 1.6403 11.9083 1.43451 10.8738C1.22872 9.8392 1.33434 8.76685 1.73801 7.79231C2.14168 6.81777 2.82526 5.98481 3.70233 5.39878C4.43107 4.91185 5.2662 4.61355 6.1329 4.52659C6.30008 4.50982 6.38366 4.50143 6.46222 4.53476C6.52702 4.56225 6.59054 4.61972 6.62436 4.68145C6.66537 4.75629 6.66537 4.84862 6.66537 5.03328V9.29995C6.66537 9.48664 6.66537 9.57998 6.7017 9.65128C6.73366 9.714 6.78465 9.765 6.84737 9.79695C6.91867 9.83328 7.01202 9.83328 7.1987 9.83328H11.4654Z" stroke="#FF6BB7" stroke-linecap="round" stroke-linejoin="round"/>
<path d="M9.33203 2.36662C9.33203 2.18195 9.33203 2.08961 9.37304 2.01478C9.40686 1.95304 9.47037 1.89558 9.53517 1.86809C9.61373 1.83476 9.69732 1.84314 9.8645 1.85991C11.0834 1.98218 12.2294 2.52148 13.1033 3.39538C13.9772 4.26928 14.5165 5.41522 14.6387 6.63415C14.6555 6.80133 14.6639 6.88492 14.6306 6.96348C14.6031 7.02828 14.5456 7.09179 14.4839 7.12561C14.409 7.16662 14.3167 7.16662 14.132 7.16662L9.86537 7.16662C9.67868 7.16662 9.58534 7.16662 9.51404 7.13029C9.45132 7.09833 9.40032 7.04734 9.36836 6.98461C9.33203 6.91331 9.33203 6.81997 9.33203 6.63328V2.36662Z" stroke="#FF6BB7" stroke-linecap="round" stroke-linejoin="round"/>
</svg>
