<svg width="25" height="24" viewBox="0 0 25 24" fill="none" xmlns="http://www.w3.org/2000/svg">
<path d="M12.5 21H3.5C3.5 17.134 6.63401 14 10.5 14C10.8395 14 11.1734 14.0242 11.5 14.0709M21.3726 15.2038C21.3044 15.2079 21.2357 15.21 21.1667 15.21C20.1422 15.21 19.2077 14.7524 18.5 14C17.7923 14.7524 16.8578 15.2099 15.8333 15.2099C15.7643 15.2099 15.6956 15.2078 15.6274 15.2037C15.5442 15.5853 15.5 15.9855 15.5 16.3979C15.5 18.6121 16.7748 20.4725 18.5 21C20.2252 20.4725 21.5 18.6121 21.5 16.3979C21.5 15.9855 21.4558 15.5853 21.3726 15.2038ZM14.5 7C14.5 9.20914 12.7091 11 10.5 11C8.29086 11 6.5 9.20914 6.5 7C6.5 4.79086 8.29086 3 10.5 3C12.7091 3 14.5 4.79086 14.5 7Z" stroke="#0E2141" stroke-width="1.5" stroke-linecap="square"/>
</svg>
