<svg width="25" height="24" viewBox="0 0 25 24" fill="none" xmlns="http://www.w3.org/2000/svg">
<path d="M6.5 21C6.5 21 8.3 20 12.5 20C16.7 20 18.5 21 18.5 21M9.5 17V20M15.5 17V20M8.3 17H16.7C18.3802 17 19.2202 17 19.862 16.673C20.4265 16.3854 20.8854 15.9265 21.173 15.362C21.5 14.7202 21.5 13.8802 21.5 12.2V7.8C21.5 6.11984 21.5 5.27976 21.173 4.63803C20.8854 4.07354 20.4265 3.6146 19.862 3.32698C19.2202 3 18.3802 3 16.7 3H8.3C6.61984 3 5.77976 3 5.13803 3.32698C4.57354 3.6146 4.1146 4.07354 3.82698 4.63803C3.5 5.27976 3.5 6.11984 3.5 7.8V12.2C3.5 13.8802 3.5 14.7202 3.82698 15.362C4.1146 15.9265 4.57354 16.3854 5.13803 16.673C5.77976 17 6.61984 17 8.3 17Z" stroke="#0E2141" stroke-width="1.5" stroke-linecap="square"/>
</svg>
