<svg width="20" height="20" viewBox="0 0 20 20" fill="none" xmlns="http://www.w3.org/2000/svg">
<g clip-path="url(#clip0_11016_3014)">
<path d="M1.24976 1.36108C-0.321907 2.99358 -0.000240854 4.72774 -0.000240854 9.99608C-0.000240854 14.3711 -0.763574 18.7569 3.23143 19.7894C4.47893 20.1102 15.5323 20.1102 16.7781 19.7877C18.4414 19.3586 19.7948 18.0094 19.9798 15.6569C20.0056 15.3286 20.0056 4.66941 19.9789 4.33441C19.7823 1.82858 18.2398 0.384409 16.2073 0.0919088C15.7414 0.0244088 15.6481 0.00440878 13.2581 0.000242114C4.78059 0.00440878 2.92226 -0.373091 1.24976 1.36108Z" fill="url(#paint0_linear_11016_3014)"/>
<path d="M9.99688 2.61601C6.97104 2.61601 4.09771 2.34685 3.00021 5.16351C2.54688 6.32685 2.61271 7.83768 2.61271 10.001C2.61271 11.8993 2.55188 13.6835 3.00021 14.8377C4.09521 17.656 6.99188 17.386 9.99521 17.386C12.8927 17.386 15.8802 17.6877 16.991 14.8377C17.4452 13.6627 17.3785 12.1743 17.3785 10.001C17.3785 7.11601 17.5377 5.25351 16.1385 3.85518C14.7219 2.43851 12.806 2.61601 9.99354 2.61601H9.99688ZM9.33521 3.94685C15.6469 3.93685 16.4502 3.23518 16.0069 12.9827C15.8494 16.4302 13.2244 16.0518 9.99771 16.0518C4.11438 16.0518 3.94521 15.8835 3.94521 9.99768C3.94521 4.04351 4.41188 3.95018 9.33521 3.94518V3.94685ZM13.9385 5.17268C13.7036 5.17268 13.4783 5.26601 13.3122 5.43213C13.146 5.59826 13.0527 5.82358 13.0527 6.05851C13.0527 6.29345 13.146 6.51877 13.3122 6.68489C13.4783 6.85102 13.7036 6.94435 13.9385 6.94435C14.1735 6.94435 14.3988 6.85102 14.5649 6.68489C14.731 6.51877 14.8244 6.29345 14.8244 6.05851C14.8244 5.82358 14.731 5.59826 14.5649 5.43213C14.3988 5.26601 14.1735 5.17268 13.9385 5.17268ZM9.99688 6.20851C9.49889 6.20857 9.0058 6.30671 8.54574 6.49733C8.08569 6.68795 7.66768 6.96732 7.31559 7.31948C6.60452 8.03072 6.2051 8.99529 6.20521 10.001C6.20532 11.0067 6.60495 11.9712 7.31618 12.6823C8.02741 13.3934 8.99199 13.7928 9.99771 13.7927C11.0034 13.7926 11.9679 13.3929 12.679 12.6817C13.3901 11.9705 13.7895 11.0059 13.7894 10.0002C13.7893 8.99446 13.3896 8.02997 12.6784 7.31889C11.9672 6.60782 11.0026 6.2084 9.99688 6.20851ZM9.99688 7.53935C13.251 7.53935 13.2552 12.4627 9.99688 12.4627C6.74354 12.4627 6.73854 7.53935 9.99688 7.53935Z" fill="white"/>
</g>
<defs>
<linearGradient id="paint0_linear_11016_3014" x1="1.28811" y1="18.7228" x2="19.876" y2="2.63522" gradientUnits="userSpaceOnUse">
<stop stop-color="#FFDD55"/>
<stop offset="0.5" stop-color="#FF543E"/>
<stop offset="1" stop-color="#C837AB"/>
</linearGradient>
<clipPath id="clip0_11016_3014">
<rect width="20" height="20" fill="white"/>
</clipPath>
</defs>
</svg>
