<svg width="148" height="58" viewBox="0 0 148 58" fill="none" xmlns="http://www.w3.org/2000/svg">
<path d="M0 55.454V46.4004H1.07293V50.4321H5.79728V46.4004H6.87021V55.454H5.79728V51.4047H1.07293V55.454H0Z" fill="#0077BC"/>
<path d="M11.6659 55.5955C11.0256 55.5955 10.4733 55.4511 10.009 55.1623C9.54748 54.8705 9.19128 54.4638 8.94035 53.9422C8.69231 53.4176 8.56829 52.8075 8.56829 52.112C8.56829 51.4164 8.69231 50.8034 8.94035 50.273C9.19128 49.7395 9.54027 49.324 9.98733 49.0263C10.4373 48.7257 10.9622 48.5754 11.5621 48.5754C11.9082 48.5754 12.25 48.6343 12.5874 48.7522C12.9249 48.8701 13.2321 49.0617 13.509 49.3269C13.7858 49.5892 14.0065 49.937 14.1709 50.3702C14.3353 50.8034 14.4175 51.3369 14.4175 51.9705V52.4126H9.29511V51.5108H13.3792C13.3792 51.1276 13.3042 50.7858 13.1542 50.4851C13.0071 50.1845 12.7966 49.9473 12.5226 49.7734C12.2514 49.5995 11.9313 49.5126 11.5621 49.5126C11.1554 49.5126 10.8036 49.6157 10.5065 49.822C10.2123 50.0254 9.98588 50.2906 9.82725 50.6178C9.66862 50.9449 9.5893 51.2956 9.5893 51.6699V52.2711C9.5893 52.7839 9.67583 53.2186 9.84888 53.5752C10.0248 53.9289 10.2685 54.1986 10.58 54.3842C10.8915 54.567 11.2535 54.6583 11.6659 54.6583C11.9342 54.6583 12.1764 54.62 12.3928 54.5434C12.612 54.4638 12.8009 54.3459 12.9595 54.1897C13.1181 54.0306 13.2407 53.8331 13.3272 53.5973L14.3137 53.8803C14.2098 54.2221 14.0353 54.5227 13.7902 54.7821C13.545 55.0385 13.2422 55.2389 12.8816 55.3833C12.5211 55.5248 12.1159 55.5955 11.6659 55.5955Z" fill="#0077BC"/>
<path d="M15.2611 57.3992V54.4815H15.8149C15.9504 54.3371 16.0673 54.1809 16.1653 54.0129C16.2634 53.8449 16.3485 53.646 16.4206 53.4161C16.4956 53.1833 16.559 52.9003 16.6109 52.5673C16.6628 52.2313 16.709 51.8261 16.7494 51.3516L16.9743 48.6638H21.1968V54.4815H22.2179V57.3992H21.1968V55.454H16.2821V57.3992H15.2611ZM16.9743 54.4815H20.1758V49.6364H17.9261L17.7531 51.3516C17.681 52.0619 17.5916 52.6822 17.4848 53.2127C17.3781 53.7432 17.208 54.1661 16.9743 54.4815Z" fill="#0077BC"/>
<path d="M23.5731 55.454V48.6638H26.29C27.0053 48.6638 27.5735 48.8288 27.9946 49.1589C28.4157 49.489 28.6262 49.9252 28.6262 50.4675C28.6262 50.8801 28.5065 51.1998 28.2671 51.4268C28.0277 51.6507 27.7206 51.8025 27.3456 51.8821C27.5908 51.9175 27.8287 52.0059 28.0595 52.1473C28.2931 52.2888 28.4863 52.4833 28.6392 52.7309C28.7921 52.9755 28.8685 53.2761 28.8685 53.6327C28.8685 53.9805 28.782 54.2914 28.6089 54.5655C28.4359 54.8396 28.1878 55.0562 27.8648 55.2153C27.5418 55.3745 27.1553 55.454 26.7053 55.454H23.5731ZM24.5422 54.4992H26.7053C27.0572 54.4992 27.3327 54.4137 27.5317 54.2428C27.7307 54.0718 27.8302 53.839 27.8302 53.5443C27.8302 53.1936 27.7307 52.918 27.5317 52.7176C27.3327 52.5143 27.0572 52.4126 26.7053 52.4126H24.5422V54.4992ZM24.5422 51.5108H26.29C26.564 51.5108 26.7991 51.4724 26.9952 51.3958C27.1913 51.3162 27.3413 51.2043 27.4451 51.0598C27.5519 50.9125 27.6052 50.7386 27.6052 50.5382C27.6052 50.2523 27.4884 50.0283 27.2548 49.8662C27.0212 49.7012 26.6996 49.6187 26.29 49.6187H24.5422V51.5108Z" fill="#0077BC"/>
<path d="M31.4351 53.9156L34.6366 48.6638H35.8133V55.454H34.7923V50.2022L31.6081 55.454H30.4141V48.6638H31.4351V53.9156Z" fill="#0077BC"/>
<path d="M37.2681 55.454L39.9677 52.0059L37.3027 48.6638H38.514L40.7291 51.5638H41.2829V48.6638H42.3039V51.5638H42.8404L45.0555 48.6638H46.2668L43.6191 52.0059L46.3014 55.454H45.0728L42.8231 52.5364H42.3039V55.454H41.2829V52.5364H40.7637L38.4967 55.454H37.2681Z" fill="#0077BC"/>
<path d="M48.7815 53.9156L51.983 48.6638H53.1597V55.454H52.1387V50.2022L48.9546 55.454H47.7605V48.6638H48.7815V53.9156Z" fill="#0077BC"/>
<path d="M58.6639 54.0394L60.9828 48.6638H61.9519L59.0792 55.454H58.2486L55.4278 48.6638H56.3796L58.6639 54.0394ZM56.0508 48.6638V55.454H55.0298V48.6638H56.0508ZM61.277 55.454V48.6638H62.298V55.454H61.277Z" fill="#0077BC"/>
<path d="M66.8666 55.5955C66.2667 55.5955 65.7403 55.4496 65.2875 55.1579C64.8376 54.8661 64.4857 54.4579 64.2319 53.9333C63.981 53.4087 63.8555 52.7957 63.8555 52.0943C63.8555 51.387 63.981 50.7695 64.2319 50.242C64.4857 49.7145 64.8376 49.3048 65.2875 49.013C65.7403 48.7213 66.2667 48.5754 66.8666 48.5754C67.4665 48.5754 67.9915 48.7213 68.4414 49.013C68.8942 49.3048 69.2461 49.7145 69.497 50.242C69.7508 50.7695 69.8778 51.387 69.8778 52.0943C69.8778 52.7957 69.7508 53.4087 69.497 53.9333C69.2461 54.4579 68.8942 54.8661 68.4414 55.1579C67.9915 55.4496 67.4665 55.5955 66.8666 55.5955ZM66.8666 54.6583C67.3223 54.6583 67.6973 54.539 67.9915 54.3002C68.2857 54.0615 68.5034 53.7476 68.6447 53.3586C68.7861 52.9696 68.8567 52.5482 68.8567 52.0943C68.8567 51.6404 68.7861 51.2175 68.6447 50.8255C68.5034 50.4336 68.2857 50.1168 67.9915 49.8751C67.6973 49.6334 67.3223 49.5126 66.8666 49.5126C66.4109 49.5126 66.036 49.6334 65.7418 49.8751C65.4476 50.1168 65.2298 50.4336 65.0885 50.8255C64.9472 51.2175 64.8765 51.6404 64.8765 52.0943C64.8765 52.5482 64.9472 52.9696 65.0885 53.3586C65.2298 53.7476 65.4476 54.0615 65.7418 54.3002C66.036 54.539 66.4109 54.6583 66.8666 54.6583Z" fill="#0077BC"/>
<path d="M74.1359 55.5955C73.5129 55.5955 72.9765 55.4452 72.5265 55.1446C72.0766 54.844 71.7305 54.4299 71.4882 53.9024C71.2459 53.3748 71.1248 52.7721 71.1248 52.0943C71.1248 51.4047 71.2488 50.7961 71.4969 50.2685C71.7478 49.738 72.0968 49.324 72.5438 49.0263C72.9938 48.7257 73.5187 48.5754 74.1186 48.5754C74.5859 48.5754 75.007 48.6638 75.3819 48.8406C75.7569 49.0175 76.064 49.265 76.3034 49.5833C76.5428 49.9016 76.6914 50.273 76.749 50.6973H75.728C75.6502 50.3879 75.4771 50.1138 75.2089 49.8751C74.9435 49.6334 74.5859 49.5126 74.1359 49.5126C73.7379 49.5126 73.3889 49.6187 73.089 49.8309C72.7919 50.0401 72.5597 50.3363 72.3924 50.7194C72.228 51.0996 72.1458 51.5461 72.1458 52.0589C72.1458 52.5835 72.2266 53.0403 72.3881 53.4294C72.5525 53.8184 72.7832 54.1205 73.0803 54.3356C73.3803 54.5507 73.7321 54.6583 74.1359 54.6583C74.4013 54.6583 74.6421 54.6112 74.8584 54.5169C75.0748 54.4225 75.2579 54.287 75.4079 54.1101C75.5579 53.9333 75.6646 53.7211 75.728 53.4736H76.749C76.6914 53.8744 76.5486 54.2354 76.3207 54.5566C76.0958 54.8749 75.7972 55.1284 75.4252 55.317C75.056 55.5027 74.6263 55.5955 74.1359 55.5955Z" fill="#0077BC"/>
<path d="M77.7181 49.6364V48.6638H83.1174V49.6364H80.9369V55.454H79.9159V49.6364H77.7181Z" fill="#0077BC"/>
<path d="M85.4893 51.1217H87.3929C88.1716 51.1217 88.7672 51.3236 89.1797 51.7274C89.5921 52.1311 89.7983 52.6425 89.7983 53.2614C89.7983 53.6681 89.706 54.0379 89.5214 54.371C89.3368 54.7011 89.0657 54.9648 88.7081 55.1623C88.3504 55.3568 87.912 55.454 87.3929 55.454H84.6067V48.6638H85.6277V54.4815H87.3929C87.7967 54.4815 88.1284 54.3724 88.3879 54.1544C88.6475 53.9363 88.7773 53.6563 88.7773 53.3144C88.7773 52.9549 88.6475 52.6616 88.3879 52.4347C88.1284 52.2078 87.7967 52.0943 87.3929 52.0943H85.4893V51.1217Z" fill="#0077BC"/>
<path d="M94.779 55.454V48.6638H97.4959C98.2112 48.6638 98.7794 48.8288 99.2005 49.1589C99.6216 49.489 99.8322 49.9252 99.8322 50.4675C99.8322 50.8801 99.7125 51.1998 99.4731 51.4268C99.2337 51.6507 98.9265 51.8025 98.5516 51.8821C98.7967 51.9175 99.0347 52.0059 99.2654 52.1473C99.499 52.2888 99.6923 52.4833 99.8451 52.7309C99.998 52.9755 100.074 53.2761 100.074 53.6327C100.074 53.9805 99.9879 54.2914 99.8148 54.5655C99.6418 54.8396 99.3938 55.0562 99.0707 55.2153C98.7477 55.3745 98.3612 55.454 97.9113 55.454H94.779ZM95.7481 54.4992H97.9113C98.2631 54.4992 98.5386 54.4137 98.7376 54.2428C98.9366 54.0718 99.0361 53.839 99.0361 53.5443C99.0361 53.1936 98.9366 52.918 98.7376 52.7176C98.5386 52.5143 98.2631 52.4126 97.9113 52.4126H95.7481V54.4992ZM95.7481 51.5108H97.4959C97.7699 51.5108 98.005 51.4724 98.2011 51.3958C98.3973 51.3162 98.5472 51.2043 98.6511 51.0598C98.7578 50.9125 98.8111 50.7386 98.8111 50.5382C98.8111 50.2523 98.6943 50.0283 98.4607 49.8662C98.2271 49.7012 97.9055 49.6187 97.4959 49.6187H95.7481V51.5108Z" fill="#0077BC"/>
<path d="M104.7 47.373V46.4004H111.346V47.373H108.559V55.454H107.487V47.373H104.7Z" fill="#0077BC"/>
<path d="M112.759 58.0004C112.586 58.0004 112.432 57.9857 112.296 57.9562C112.161 57.9297 112.067 57.9031 112.015 57.8766L112.275 56.9571C112.523 57.0219 112.742 57.0455 112.932 57.0278C113.123 57.0101 113.291 56.9232 113.438 56.767C113.588 56.6138 113.725 56.3647 113.849 56.0199L114.04 55.4894L111.582 48.6638H112.69L114.524 54.0748H114.594L116.428 48.6638H117.535L114.715 56.4443C114.588 56.795 114.431 57.0853 114.243 57.3152C114.056 57.548 113.838 57.7204 113.59 57.8324C113.345 57.9444 113.068 58.0004 112.759 58.0004Z" fill="#0077BC"/>
<path d="M118.883 58.0004V48.6638H119.87V49.7425H119.991C120.066 49.6246 120.169 49.4743 120.302 49.2915C120.438 49.1059 120.631 48.9408 120.882 48.7964C121.136 48.6491 121.479 48.5754 121.912 48.5754C122.471 48.5754 122.964 48.7183 123.391 49.0042C123.818 49.2901 124.151 49.6953 124.391 50.2199C124.63 50.7445 124.75 51.3634 124.75 52.0766C124.75 52.7957 124.63 53.419 124.391 53.9466C124.151 54.4712 123.819 54.8779 123.395 55.1667C122.972 55.4526 122.483 55.5955 121.929 55.5955C121.502 55.5955 121.16 55.5233 120.904 55.3789C120.647 55.2315 120.449 55.065 120.311 54.8794C120.172 54.6907 120.066 54.5345 119.991 54.4108H119.904V58.0004H118.883ZM119.887 52.0589C119.887 52.5717 119.96 53.0241 120.107 53.4161C120.255 53.8051 120.469 54.1101 120.752 54.3312C121.035 54.5493 121.381 54.6583 121.79 54.6583C122.217 54.6583 122.573 54.5434 122.859 54.3135C123.147 54.0807 123.364 53.7683 123.508 53.3763C123.655 52.9814 123.729 52.5423 123.729 52.0589C123.729 51.5815 123.657 51.1512 123.512 50.7681C123.371 50.382 123.156 50.077 122.868 49.853C122.582 49.6261 122.223 49.5126 121.79 49.5126C121.375 49.5126 121.026 49.6202 120.743 49.8353C120.461 50.0475 120.247 50.3452 120.103 50.7283C119.959 51.1085 119.887 51.552 119.887 52.0589Z" fill="#0077BC"/>
<path d="M131.533 48.6638V54.4815H132.468V57.6467H131.447V55.454H126.307V48.6638H127.328V54.4815H130.512V48.6638H131.533Z" fill="#0077BC"/>
<path d="M135.061 53.9156L138.263 48.6638H139.44V55.454H138.419V50.2022L135.234 55.454H134.04V48.6638H135.061V53.9156Z" fill="#0077BC"/>
<path d="M142.331 53.9156L145.532 48.6638H146.709V55.454H145.688V50.2022L142.504 55.454H141.31V48.6638H142.331V53.9156Z" fill="#0077BC"/>
<path fill-rule="evenodd" clip-rule="evenodd" d="M109.721 24.4516C109.577 26.8421 106.763 36.9499 106.763 36.9499H101.14C101.14 36.9499 103.685 27.8386 103.625 26.1896C103.571 24.5405 102.086 24.6236 101.2 24.6236C100.313 24.6236 99.008 24.9558 97.6787 25.7328L94.9301 36.8965H89.2773L93.4271 20.9637H98.9302L98.511 22.8025C98.511 22.8025 101.685 20.501 104.852 20.501C108.008 20.501 109.87 22.067 109.721 24.4516Z" fill="#0077BC"/>
<path fill-rule="evenodd" clip-rule="evenodd" d="M82.008 36.9499H87.511C87.511 36.9499 90.4991 25.5549 90.4692 24.5405C90.4392 23.5203 90.2237 20.501 82.8643 20.501C82.8643 20.501 77.6067 20.6255 75.415 21.3077L74.5827 25.1397H75.1156C75.1156 25.1397 77.6007 24.0304 80.7984 24.0304C83.996 24.0304 84.7685 24.76 84.7086 25.6735C84.6487 26.593 84.5888 26.504 84.5888 26.504C84.5888 26.504 71.2413 25.8752 71.1216 33.1773C71.1216 33.1773 70.5347 37.377 76.451 37.377C76.451 37.377 79.4091 37.4126 82.3672 35.2238L82.008 36.9499ZM76.9121 32.4358C76.942 29.1733 83.8343 29.4224 83.8343 29.4224L83.0379 32.7146C81.3493 34.0018 79.5468 33.9899 79.5468 33.9899C76.5348 34.1382 76.9121 32.4358 76.9121 32.4358Z" fill="#0077BC"/>
<path fill-rule="evenodd" clip-rule="evenodd" d="M70.0569 25.8691C67.5659 25.8691 66.0569 26.4978 66.0569 26.4978L63.452 37.1158H57.8711L61.8891 21.266H67.4221L66.8653 23.5438C66.8653 23.5438 70.3444 20.6491 74.4941 21.2422L73.2246 26.1894C73.2187 26.1894 72.542 25.8691 70.0569 25.8691Z" fill="#0077BC"/>
<path fill-rule="evenodd" clip-rule="evenodd" d="M55.2947 30.3899C55.2947 30.3899 58.666 30.0874 58.666 26.4452C58.666 22.8031 55.8216 20.9346 51.1449 20.9346C46.4682 20.9346 39.9591 22.7734 39.486 30.8466C39.486 30.8466 38.7495 37.6148 48.2167 37.8403C48.2167 37.8403 53.7198 37.8047 56.0611 36.4463L57.0671 32.3296H56.4683C56.4683 32.3296 53.8934 34.2278 50.1389 34.2278C46.3843 34.2278 44.7855 32.7863 44.9651 30.3958H55.2947V30.3899ZM49.9353 24.1437C53.3964 24.1437 53.103 26.1071 53.103 26.5045C53.103 26.902 52.9832 27.3825 52.9832 27.3825L45.4921 27.3528C45.4921 27.3528 46.4741 24.1437 49.9353 24.1437Z" fill="#0077BC"/>
<path fill-rule="evenodd" clip-rule="evenodd" d="M30.6133 37.122L36.2361 15.0557H41.829L36.2361 37.122H30.6133Z" fill="#0077BC"/>
<path fill-rule="evenodd" clip-rule="evenodd" d="M20.3236 37.3477C26.5931 37.3477 31.8627 33.5395 31.9166 26.7594C31.9765 19.9734 24.138 20.4183 24.138 20.4183L23.7248 20.3887C14.9343 20.3887 12.3594 27.3289 12.3594 30.6804C12.3594 34.0259 14.048 37.3477 20.3236 37.3477ZM23.3655 23.8884C23.3655 23.8884 26.0602 23.663 26.0602 26.7594C26.0602 29.8559 24.9883 33.8836 20.9643 33.8836C20.9643 33.8836 18.1559 34.1979 18.1559 30.6804C18.1559 27.1569 19.9344 23.8647 23.2158 23.8647L23.3655 23.8884Z" fill="#0077BC"/>
<path fill-rule="evenodd" clip-rule="evenodd" d="M13.6306 19.279L9.43297 36.3568H3.37299L7.77426 19.3384H0.46875L1.55859 15.2217H21.9122L20.9122 19.279H13.6306Z" fill="#0077BC"/>
<path fill-rule="evenodd" clip-rule="evenodd" d="M122.213 20.501C122.213 20.501 126.303 20.5662 128.279 21.8712L127.057 26.1599H126.291C126.291 26.1599 124.865 24.1668 121.584 24.1668C118.302 24.1668 115.841 26.6167 115.841 29.9919C115.841 33.3671 118.159 33.7111 119.901 33.7111C121.644 33.7111 124.237 32.7858 125.015 31.7833H125.847L124.662 36.1491C124.662 36.1491 122.033 37.3651 117.949 37.3651C113.865 37.3651 109.961 35.3246 109.961 30.3537C109.961 25.3829 114.644 20.584 122.213 20.501Z" fill="#0077BC"/>
<path fill-rule="evenodd" clip-rule="evenodd" d="M139.19 20.9346C134.525 20.9346 128.004 22.7734 127.537 30.8407C127.537 30.8407 126.8 37.6089 136.262 37.8343C136.262 37.8343 141.765 37.7987 144.106 36.4403L145.112 32.3237H144.519C144.519 32.3237 141.944 34.2218 138.19 34.2218C134.435 34.2218 132.836 32.7804 133.016 30.3899H143.345C143.345 30.3899 146.717 30.0874 146.717 26.4452C146.717 22.8031 143.866 20.9346 139.19 20.9346ZM141.028 27.3825L133.543 27.3528C133.543 27.3528 134.525 24.1437 137.98 24.1437C141.441 24.1437 141.148 26.1071 141.148 26.5045C141.148 26.902 141.028 27.3825 141.028 27.3825Z" fill="#0077BC"/>
<path d="M113.332 12.119L112.32 14.8654H103.816V14.4739C106.319 12.2139 108.08 10.3691 109.098 8.93953C110.116 7.50997 110.631 6.19903 110.631 5.01267C110.631 4.1051 110.349 3.36362 109.793 2.78231C109.23 2.20099 108.565 1.91033 107.787 1.91033C107.08 1.91033 106.439 2.11794 105.876 2.52724C105.313 2.93653 104.894 3.54158 104.631 4.33051H104.236C104.415 3.03144 104.87 2.0349 105.601 1.34087C106.337 0.646852 107.248 0.296875 108.349 0.296875C109.517 0.296875 110.493 0.67058 111.278 1.41206C112.062 2.15353 112.451 3.03144 112.451 4.04578C112.451 4.76947 112.284 5.49315 111.942 6.21683C111.421 7.35574 110.571 8.5599 109.391 9.82931C107.625 11.7394 106.523 12.8901 106.086 13.2816H109.846C110.613 13.2816 111.146 13.252 111.457 13.1986C111.763 13.1452 112.044 13.0266 112.29 12.8545C112.535 12.6825 112.751 12.4393 112.936 12.1249H113.332V12.119Z" fill="#0077BC"/>
<path d="M113.277 7.81249C113.277 6.18717 113.529 4.78133 114.02 3.60683C114.511 2.43233 115.176 1.55442 115.996 0.979034C116.631 0.522284 117.289 0.296875 117.972 0.296875C119.074 0.296875 120.068 0.854466 120.948 1.96965C122.044 3.35176 122.595 5.22622 122.595 7.59301C122.595 9.24799 122.355 10.6538 121.87 11.8165C121.391 12.9732 120.774 13.8155 120.026 14.3375C119.277 14.8595 118.559 15.1205 117.864 15.1205C116.487 15.1205 115.343 14.3197 114.433 12.7122C113.667 11.3538 113.277 9.72253 113.277 7.81249ZM115.361 8.07349C115.361 10.0369 115.607 11.6444 116.092 12.8842C116.493 13.9282 117.098 14.4502 117.9 14.4502C118.283 14.4502 118.679 14.2782 119.092 13.9401C119.505 13.6019 119.816 13.0266 120.026 12.2317C120.349 11.0275 120.517 9.3251 120.517 7.1244C120.517 5.49908 120.349 4.14069 120.008 3.04924C119.751 2.24251 119.421 1.67306 119.02 1.33494C118.727 1.1036 118.379 0.984966 117.966 0.984966C117.487 0.984966 117.056 1.19851 116.679 1.6256C116.17 2.20692 115.822 3.12635 115.637 4.37203C115.457 5.62958 115.361 6.8634 115.361 8.07349Z" fill="#0077BC"/>
<path fill-rule="evenodd" clip-rule="evenodd" d="M144.053 12.8544C143.634 12.8544 143.286 12.8069 143.011 12.712C142.735 12.6171 142.604 12.4985 142.61 12.362L142.622 12.0536L142.651 11.7688L142.687 11.5197C142.933 12.1485 143.394 12.4629 144.089 12.4629C144.388 12.4629 144.646 12.3858 144.849 12.2256C145.071 12.0595 145.178 11.8282 145.178 11.5494C145.178 11.2884 145.059 11.057 144.819 10.8613C144.693 10.7545 144.46 10.6121 144.107 10.4283C143.268 9.9893 142.855 9.50882 142.855 8.97496C142.855 8.54193 143.041 8.22755 143.418 8.00807C143.723 7.83605 144.113 7.74707 144.592 7.74707C144.747 7.74707 144.933 7.75893 145.155 7.78266C145.412 7.81232 145.628 7.84791 145.801 7.88943L145.771 8.8148C145.496 8.35212 145.101 8.11484 144.586 8.11484C144.005 8.11484 143.717 8.34025 143.717 8.79107C143.717 9.14698 144.095 9.53848 144.855 9.95964L144.963 10.013C145.436 10.274 145.735 10.4935 145.879 10.6655C146.029 10.8613 146.107 11.0808 146.107 11.3418C146.107 11.7985 145.873 12.1781 145.418 12.4688C145.011 12.7239 144.556 12.8544 144.053 12.8544Z" fill="#0077BC"/>
<path fill-rule="evenodd" clip-rule="evenodd" d="M142.462 8.47683L141.851 8.44717C141.552 8.43531 141.342 8.53615 141.24 8.74969C141.133 8.96324 141.091 9.42592 141.097 10.1437L141.109 11.5139C141.115 11.8283 141.121 12.0359 141.133 12.1427C141.162 12.4393 141.24 12.635 141.348 12.7121H140.055C140.145 12.6469 140.204 12.5283 140.24 12.3444C140.276 12.1427 140.294 11.8105 140.294 11.336V9.95978C140.294 8.74376 140.216 8.0794 140.055 7.96669L140.905 7.83026C141.031 7.83026 141.091 7.98449 141.091 8.28108V8.39378C141.091 8.42344 141.097 8.45903 141.103 8.49462C141.444 7.98449 141.845 7.73535 142.3 7.73535C142.707 7.73535 142.911 7.87178 142.911 8.15058C142.911 8.25142 142.875 8.32853 142.797 8.38192C142.701 8.4531 142.594 8.48869 142.462 8.47683Z" fill="#0077BC"/>
<path fill-rule="evenodd" clip-rule="evenodd" d="M138.474 12.3978C138.504 12.5402 138.54 12.6648 138.582 12.7775L139.6 12.7122C139.474 12.6351 139.379 12.4512 139.307 12.1487C139.247 11.864 139.217 11.4428 139.217 10.8971L139.241 10.0904L139.247 9.58022L139.277 8.77942C139.289 8.41758 139.181 8.14472 138.953 7.9727C138.732 7.81254 138.372 7.73542 137.875 7.72949C137.402 7.73542 136.971 7.78881 136.582 7.90151C136.007 8.06761 135.726 8.33454 135.726 8.68452C135.726 8.95145 135.863 9.08788 136.139 9.08788C136.343 9.08788 136.516 8.92772 136.69 8.6074L136.81 8.37013C136.881 8.27522 136.977 8.20404 137.091 8.15065C137.211 8.1032 137.349 8.07947 137.498 8.07947C138.133 8.07947 138.45 8.40572 138.45 9.06415C138.45 9.38447 138.361 9.62174 138.187 9.77597C138.085 9.85901 137.84 9.98358 137.444 10.1497C136.846 10.4047 136.45 10.5886 136.271 10.7073C135.81 11.0039 135.582 11.3301 135.582 11.6979C135.582 12.0301 135.738 12.3029 136.049 12.5283C136.331 12.7359 136.654 12.8427 137.013 12.8427C137.666 12.8427 138.151 12.5402 138.45 11.9292C138.438 12.0834 138.45 12.2377 138.474 12.3978ZM138.414 10.1022V10.8674C138.414 11.7631 138.073 12.208 137.384 12.208C137.139 12.208 136.941 12.1487 136.774 12.0301C136.588 11.9055 136.498 11.7275 136.498 11.5021C136.498 11.164 136.744 10.8556 137.229 10.5886C137.366 10.5174 137.762 10.3514 138.414 10.1022Z" fill="#0077BC"/>
<path fill-rule="evenodd" clip-rule="evenodd" d="M133.358 9.59787C134.286 9.60973 134.861 9.57414 135.076 9.50889C135.274 9.45551 135.376 9.3428 135.376 9.17078C135.376 8.71996 135.19 8.36405 134.825 8.10305C134.502 7.85985 134.094 7.74121 133.609 7.74121C132.849 7.74121 132.256 7.99628 131.837 8.50048C131.448 8.96317 131.25 9.56821 131.25 10.3156C131.25 11.0393 131.436 11.6266 131.795 12.0892C132.196 12.5994 132.759 12.8485 133.484 12.8485C133.873 12.8485 134.25 12.7477 134.633 12.546C135.076 12.3028 135.298 12.0121 135.298 11.6621V11.5376C134.861 11.9587 134.376 12.1663 133.849 12.1663C133.334 12.1663 132.927 11.9884 132.633 11.6325C132.304 11.241 132.154 10.7664 132.184 10.197L132.202 9.87667C132.214 9.77582 132.238 9.67498 132.268 9.58007L132.705 9.59787H133.358ZM134.154 8.34032C134.34 8.48269 134.436 8.67844 134.436 8.90978C134.436 9.05214 134.376 9.15298 134.262 9.20637C134.148 9.25382 133.843 9.27755 133.334 9.27755L132.699 9.26569L132.436 9.25382H132.334C132.37 8.93351 132.496 8.66657 132.693 8.45303C132.915 8.21576 133.184 8.09712 133.508 8.09712C133.753 8.10898 133.969 8.1861 134.154 8.34032Z" fill="#0077BC"/>
<path fill-rule="evenodd" clip-rule="evenodd" d="M130.269 11.0449C129.478 12.9668 128.85 14.3074 128.383 15.0489C127.329 16.7217 126.191 17.564 124.969 17.564C124.652 17.564 124.347 17.4987 124.047 17.3801C123.67 17.2259 123.484 17.0242 123.484 16.7513C123.484 16.7335 123.496 16.7217 123.502 16.7039C123.724 16.8403 123.969 16.9471 124.245 17.0005C124.407 17.0301 124.568 17.0479 124.724 17.0479C125.395 17.0479 126.017 16.7632 126.443 16.3064C126.694 16.1997 126.934 16.0098 127.161 15.737C128.083 14.6277 128.544 13.6431 128.544 12.7829C128.544 12.5694 128.401 11.9347 128.113 10.8848C127.832 9.82296 127.478 8.70185 127.059 7.51549C126.814 6.83333 126.676 6.44776 126.634 6.35878C126.389 5.75374 126.167 5.42155 125.969 5.34444L127.161 5.20801H127.323C127.556 5.20801 127.993 6.32319 128.616 8.54762L128.981 9.84669C129.149 10.4517 129.323 11.0331 129.496 11.5966C130.017 10.256 130.431 9.06369 130.73 8.00783C131.041 6.95789 131.197 6.25794 131.197 5.91983C131.197 5.77746 131.185 5.66476 131.167 5.58764C131.149 5.5046 131.107 5.41562 131.047 5.30885H132.844C132.473 5.72408 131.904 6.90451 131.143 8.86201C130.796 9.75771 130.502 10.4814 130.269 11.0449Z" fill="#0077BC"/>
<path fill-rule="evenodd" clip-rule="evenodd" d="M124.802 15.9502C124.826 15.9443 124.856 15.9384 124.879 15.9265L125.101 15.8375C125.137 15.8197 125.179 15.8019 125.209 15.7782C125.604 15.5469 125.874 15.1672 125.969 14.7401C126.149 13.8859 125.598 13.0436 124.742 12.8657C124.628 12.8419 124.52 12.8301 124.412 12.8301C123.67 12.8301 123.017 13.358 122.861 14.0817C122.718 14.7757 123.047 15.4697 123.682 15.8079C123.736 15.8375 123.796 15.8612 123.856 15.885C123.927 15.9146 124.005 15.9384 124.095 15.9621C124.275 16.0036 124.478 15.9977 124.664 15.9739L124.802 15.9502Z" fill="#0077BC"/>
<path fill-rule="evenodd" clip-rule="evenodd" d="M124.802 15.9502C124.826 15.9443 124.856 15.9384 124.879 15.9265L125.101 15.8375C125.137 15.8197 125.179 15.8019 125.209 15.7782C125.604 15.5469 125.874 15.1672 125.969 14.7401C126.149 13.8859 125.598 13.0436 124.742 12.8657C124.628 12.8419 124.52 12.8301 124.412 12.8301C123.67 12.8301 123.017 13.358 122.861 14.0817C122.718 14.7757 123.047 15.4697 123.682 15.8079C123.736 15.8375 123.796 15.8612 123.856 15.885C123.927 15.9146 124.005 15.9384 124.095 15.9621C124.275 16.0036 124.478 15.9977 124.664 15.9739L124.802 15.9502Z" fill="#0077BC"/>
</svg>
