<svg width="24" height="24" viewBox="0 0 24 24" fill="none" xmlns="http://www.w3.org/2000/svg">
<path d="M13 8.5C13 7.37989 13 4.51984 12.782 4.09202C12.5903 3.71569 12.2843 3.40973 11.908 3.21799C11.4802 3 10.9201 3 9.8 3H6.2C5.0799 3 4.51984 3 4.09202 3.21799C3.71569 3.40973 3.40973 3.71569 3.21799 4.09202C3 4.51984 3 5.0799 3 6.2V21M22 21H2M6.5 7H9.5M6.5 11H9.5M6.5 15H9.5" stroke="#0077BC" stroke-width="2" stroke-linecap="round" stroke-linejoin="round"/>
<path fill-rule="evenodd" clip-rule="evenodd" d="M17.6959 12.8771L16.4695 19H13.3866L14.7166 12.9045H11L11.5544 11H22L21.4913 12.8771H17.6959Z" fill="#0077BC"/>
</svg>
