<svg width="147" height="58" viewBox="0 0 147 58" fill="none" xmlns="http://www.w3.org/2000/svg">
<path d="M0 55.454V46.4004H1.06743V50.4321H5.76758V46.4004H6.83501V55.454H5.76758V51.4047H1.06743V55.454H0Z" fill="#0077BC"/>
<path d="M11.6062 55.5955C10.9692 55.5955 10.4197 55.4511 9.95768 55.1623C9.49857 54.8705 9.1442 54.4638 8.89456 53.9422C8.64778 53.4176 8.5244 52.8075 8.5244 52.112C8.5244 51.4164 8.64778 50.8034 8.89456 50.273C9.1442 49.7395 9.4914 49.324 9.93616 49.0263C10.3838 48.7257 10.906 48.5754 11.5029 48.5754C11.8472 48.5754 12.1872 48.6343 12.523 48.7522C12.8587 48.8701 13.1643 49.0617 13.4398 49.3269C13.7152 49.5892 13.9347 49.937 14.0983 50.3702C14.2618 50.8034 14.3436 51.3369 14.3436 51.9705V52.4126H9.2475V51.5108H13.3106C13.3106 51.1276 13.236 50.7858 13.0868 50.4851C12.9405 50.1845 12.731 49.9473 12.4584 49.7734C12.1887 49.5995 11.8702 49.5126 11.5029 49.5126C11.0983 49.5126 10.7482 49.6157 10.4527 49.822C10.16 50.0254 9.93473 50.2906 9.77691 50.6178C9.61909 50.9449 9.54018 51.2956 9.54018 51.6699V52.2711C9.54018 52.7839 9.62626 53.2186 9.79843 53.5752C9.97347 53.9289 10.2159 54.1986 10.5258 54.3842C10.8357 54.567 11.1958 54.6583 11.6062 54.6583C11.873 54.6583 12.1141 54.62 12.3293 54.5434C12.5474 54.4638 12.7353 54.3459 12.8931 54.1897C13.0509 54.0306 13.1729 53.8331 13.259 53.5973L14.2403 53.8803C14.137 54.2221 13.9634 54.5227 13.7195 54.7821C13.4756 55.0385 13.1743 55.2389 12.8156 55.3833C12.457 55.5248 12.0538 55.5955 11.6062 55.5955Z" fill="#0077BC"/>
<path d="M15.1829 57.3992V54.4815H15.7339C15.8687 54.3371 15.9849 54.1809 16.0825 54.0129C16.1801 53.8449 16.2647 53.646 16.3365 53.4161C16.4111 53.1833 16.4742 52.9003 16.5258 52.5673C16.5775 52.2313 16.6234 51.8261 16.6636 51.3516L16.8874 48.6638H21.0883V54.4815H22.104V57.3992H21.0883V55.454H16.1987V57.3992H15.1829ZM16.8874 54.4815H20.0725V49.6364H17.8343L17.6621 51.3516C17.5904 52.0619 17.5014 52.6822 17.3953 53.2127C17.2891 53.7432 17.1198 54.1661 16.8874 54.4815Z" fill="#0077BC"/>
<path d="M23.4523 55.454V48.6638H26.1553C26.867 48.6638 27.4322 48.8288 27.8512 49.1589C28.2701 49.489 28.4796 49.9252 28.4796 50.4675C28.4796 50.8801 28.3605 51.1998 28.1223 51.4268C27.8842 51.6507 27.5786 51.8025 27.2055 51.8821C27.4494 51.9175 27.6862 52.0059 27.9157 52.1473C28.1482 52.2888 28.3404 52.4833 28.4925 52.7309C28.6446 52.9755 28.7206 53.2761 28.7206 53.6327C28.7206 53.9805 28.6345 54.2914 28.4624 54.5655C28.2902 54.8396 28.0434 55.0562 27.722 55.2153C27.4007 55.3745 27.0162 55.454 26.5685 55.454H23.4523ZM24.4164 54.4992H26.5685C26.9186 54.4992 27.1926 54.4137 27.3906 54.2428C27.5886 54.0718 27.6876 53.839 27.6876 53.5443C27.6876 53.1936 27.5886 52.918 27.3906 52.7176C27.1926 52.5143 26.9186 52.4126 26.5685 52.4126H24.4164V54.4992ZM24.4164 51.5108H26.1553C26.4279 51.5108 26.6618 51.4724 26.8569 51.3958C27.052 51.3162 27.2012 51.2043 27.3045 51.0598C27.4107 50.9125 27.4638 50.7386 27.4638 50.5382C27.4638 50.2523 27.3476 50.0283 27.1152 49.8662C26.8827 49.7012 26.5628 49.6187 26.1553 49.6187H24.4164V51.5108Z" fill="#0077BC"/>
<path d="M31.2741 53.9156L34.4591 48.6638H35.6299V55.454H34.6141V50.2022L31.4462 55.454H30.2583V48.6638H31.2741V53.9156Z" fill="#0077BC"/>
<path d="M37.0771 55.454L39.7629 52.0059L37.1116 48.6638H38.3167L40.5205 51.5638H41.0714V48.6638H42.0872V51.5638H42.6209L44.8246 48.6638H46.0298L43.3957 52.0059L46.0642 55.454H44.8419L42.6037 52.5364H42.0872V55.454H41.0714V52.5364H40.5549L38.2995 55.454H37.0771Z" fill="#0077BC"/>
<path d="M48.5316 53.9156L51.7167 48.6638H52.8874V55.454H51.8716V50.2022L48.7038 55.454H47.5158V48.6638H48.5316V53.9156Z" fill="#0077BC"/>
<path d="M58.3634 54.0394L60.6704 48.6638H61.6346L58.7766 55.454H57.9502L55.1439 48.6638H56.0908L58.3634 54.0394ZM55.7637 48.6638V55.454H54.7479V48.6638H55.7637ZM60.9631 55.454V48.6638H61.9789V55.454H60.9631Z" fill="#0077BC"/>
<path d="M66.5241 55.5955C65.9272 55.5955 65.4036 55.4496 64.9531 55.1579C64.5054 54.8661 64.1554 54.4579 63.9028 53.9333C63.6532 53.4087 63.5284 52.7957 63.5284 52.0943C63.5284 51.387 63.6532 50.7695 63.9028 50.242C64.1554 49.7145 64.5054 49.3048 64.9531 49.013C65.4036 48.7213 65.9272 48.5754 66.5241 48.5754C67.1209 48.5754 67.6432 48.7213 68.0908 49.013C68.5413 49.3048 68.8914 49.7145 69.141 50.242C69.3935 50.7695 69.5198 51.387 69.5198 52.0943C69.5198 52.7957 69.3935 53.4087 69.141 53.9333C68.8914 54.4579 68.5413 54.8661 68.0908 55.1579C67.6432 55.4496 67.1209 55.5955 66.5241 55.5955ZM66.5241 54.6583C66.9775 54.6583 67.3505 54.539 67.6432 54.3002C67.9359 54.0615 68.1525 53.7476 68.2931 53.3586C68.4337 52.9696 68.504 52.5482 68.504 52.0943C68.504 51.6404 68.4337 51.2175 68.2931 50.8255C68.1525 50.4336 67.9359 50.1168 67.6432 49.8751C67.3505 49.6334 66.9775 49.5126 66.5241 49.5126C66.0707 49.5126 65.6977 49.6334 65.405 49.8751C65.1123 50.1168 64.8957 50.4336 64.7551 50.8255C64.6145 51.2175 64.5442 51.6404 64.5442 52.0943C64.5442 52.5482 64.6145 52.9696 64.7551 53.3586C64.8957 53.7476 65.1123 54.0615 65.405 54.3002C65.6977 54.539 66.0707 54.6583 66.5241 54.6583Z" fill="#0077BC"/>
<path d="M73.7562 55.5955C73.1364 55.5955 72.6026 55.4452 72.155 55.1446C71.7074 54.844 71.363 54.4299 71.122 53.9024C70.881 53.3748 70.7605 52.7721 70.7605 52.0943C70.7605 51.4047 70.8838 50.7961 71.1306 50.2685C71.3803 49.738 71.7275 49.324 72.1722 49.0263C72.6199 48.7257 73.1421 48.5754 73.7389 48.5754C74.2038 48.5754 74.6227 48.6638 74.9958 48.8406C75.3688 49.0175 75.6744 49.265 75.9125 49.5833C76.1507 49.9016 76.2985 50.273 76.3559 50.6973H75.3401C75.2626 50.3879 75.0904 50.1138 74.8236 49.8751C74.5596 49.6334 74.2038 49.5126 73.7562 49.5126C73.3602 49.5126 73.013 49.6187 72.7146 49.8309C72.419 50.0401 72.188 50.3363 72.0216 50.7194C71.858 51.0996 71.7762 51.5461 71.7762 52.0589C71.7762 52.5835 71.8566 53.0403 72.0173 53.4294C72.1808 53.8184 72.4104 54.1205 72.7059 54.3356C73.0044 54.5507 73.3544 54.6583 73.7562 54.6583C74.0201 54.6583 74.2597 54.6112 74.475 54.5169C74.6902 54.4225 74.8724 54.287 75.0216 54.1101C75.1708 53.9333 75.277 53.7211 75.3401 53.4736H76.3559C76.2985 53.8744 76.1564 54.2354 75.9298 54.5566C75.7059 54.8749 75.409 55.1284 75.0388 55.317C74.6715 55.5027 74.244 55.5955 73.7562 55.5955Z" fill="#0077BC"/>
<path d="M77.32 49.6364V48.6638H82.6916V49.6364H80.5223V55.454H79.5065V49.6364H77.32Z" fill="#0077BC"/>
<path d="M85.0514 51.1217H86.9452C87.7199 51.1217 88.3125 51.3236 88.7228 51.7274C89.1331 52.1311 89.3383 52.6425 89.3383 53.2614C89.3383 53.6681 89.2465 54.0379 89.0628 54.371C88.8792 54.7011 88.6095 54.9648 88.2537 55.1623C87.8979 55.3568 87.4617 55.454 86.9452 55.454H84.1733V48.6638H85.1891V54.4815H86.9452C87.3469 54.4815 87.6769 54.3724 87.9352 54.1544C88.1934 53.9363 88.3225 53.6563 88.3225 53.3144C88.3225 52.9549 88.1934 52.6616 87.9352 52.4347C87.6769 52.2078 87.3469 52.0943 86.9452 52.0943H85.0514V51.1217Z" fill="#0077BC"/>
<path d="M94.2935 55.454V48.6638H96.9965C97.7081 48.6638 98.2734 48.8288 98.6923 49.1589C99.1113 49.489 99.3207 49.9252 99.3207 50.4675C99.3207 50.8801 99.2017 51.1998 98.9635 51.4268C98.7253 51.6507 98.4197 51.8025 98.0467 51.8821C98.2906 51.9175 98.5273 52.0059 98.7569 52.1473C98.9893 52.2888 99.1816 52.4833 99.3336 52.7309C99.4857 52.9755 99.5618 53.2761 99.5618 53.6327C99.5618 53.9805 99.4757 54.2914 99.3035 54.5655C99.1314 54.8396 98.8846 55.0562 98.5632 55.2153C98.2418 55.3745 97.8573 55.454 97.4097 55.454H94.2935ZM95.2576 54.4992H97.4097C97.7598 54.4992 98.0338 54.4137 98.2318 54.2428C98.4298 54.0718 98.5288 53.839 98.5288 53.5443C98.5288 53.1936 98.4298 52.918 98.2318 52.7176C98.0338 52.5143 97.7598 52.4126 97.4097 52.4126H95.2576V54.4992ZM95.2576 51.5108H96.9965C97.2691 51.5108 97.5029 51.4724 97.6981 51.3958C97.8932 51.3162 98.0424 51.2043 98.1457 51.0598C98.2519 50.9125 98.305 50.7386 98.305 50.5382C98.305 50.2523 98.1888 50.0283 97.9563 49.8662C97.7239 49.7012 97.404 49.6187 96.9965 49.6187H95.2576V51.5108Z" fill="#0077BC"/>
<path d="M104.164 47.373V46.4004H110.775V47.373H108.003V55.454H106.936V47.373H104.164Z" fill="#0077BC"/>
<path d="M112.182 58.0004C112.009 58.0004 111.856 57.9857 111.721 57.9562C111.586 57.9297 111.493 57.9031 111.441 57.8766L111.7 56.9571C111.946 57.0219 112.164 57.0455 112.354 57.0278C112.543 57.0101 112.711 56.9232 112.857 56.767C113.007 56.6138 113.143 56.3647 113.266 56.0199L113.456 55.4894L111.011 48.6638H112.113L113.938 54.0748H114.007L115.832 48.6638H116.933L114.127 56.4443C114.001 56.795 113.844 57.0853 113.658 57.3152C113.471 57.548 113.255 57.7204 113.008 57.8324C112.764 57.9444 112.489 58.0004 112.182 58.0004Z" fill="#0077BC"/>
<path d="M118.274 58.0004V48.6638H119.255V49.7425H119.376C119.451 49.6246 119.554 49.4743 119.686 49.2915C119.821 49.1059 120.013 48.9408 120.263 48.7964C120.515 48.6491 120.857 48.5754 121.287 48.5754C121.844 48.5754 122.334 48.7183 122.759 49.0042C123.184 49.2901 123.515 49.6953 123.753 50.2199C123.991 50.7445 124.111 51.3634 124.111 52.0766C124.111 52.7957 123.991 53.419 123.753 53.9466C123.515 54.4712 123.185 54.8779 122.763 55.1667C122.342 55.4526 121.855 55.5955 121.304 55.5955C120.88 55.5955 120.54 55.5233 120.284 55.3789C120.029 55.2315 119.832 55.065 119.695 54.8794C119.557 54.6907 119.451 54.5345 119.376 54.4108H119.29V58.0004H118.274ZM119.273 52.0589C119.273 52.5717 119.346 53.0241 119.492 53.4161C119.639 53.8051 119.852 54.1101 120.134 54.3312C120.415 54.5493 120.759 54.6583 121.167 54.6583C121.591 54.6583 121.946 54.5434 122.23 54.3135C122.517 54.0807 122.732 53.7683 122.875 53.3763C123.022 52.9814 123.095 52.5423 123.095 52.0589C123.095 51.5815 123.023 51.1512 122.88 50.7681C122.739 50.382 122.525 50.077 122.238 49.853C121.954 49.6261 121.597 49.5126 121.167 49.5126C120.753 49.5126 120.406 49.6202 120.125 49.8353C119.844 50.0475 119.631 50.3452 119.488 50.7283C119.344 51.1085 119.273 51.552 119.273 52.0589Z" fill="#0077BC"/>
<path d="M130.86 48.6638V54.4815H131.789V57.6467H130.773V55.454H125.66V48.6638H126.676V54.4815H129.844V48.6638H130.86Z" fill="#0077BC"/>
<path d="M134.37 53.9156L137.555 48.6638H138.725V55.454H137.71V50.2022L134.542 55.454H133.354V48.6638H134.37V53.9156Z" fill="#0077BC"/>
<path d="M141.602 53.9156L144.787 48.6638H145.957V55.454H144.942V50.2022L141.774 55.454H140.586V48.6638H141.602V53.9156Z" fill="#0077BC"/>
<path fill-rule="evenodd" clip-rule="evenodd" d="M109.159 24.4516C109.016 26.8421 106.216 36.9499 106.216 36.9499H100.622C100.622 36.9499 103.154 27.8386 103.094 26.1896C103.041 24.5405 101.563 24.6236 100.682 24.6236C99.7999 24.6236 98.5012 24.9558 97.1786 25.7328L94.4441 36.8965H88.8203L92.9488 20.9637H98.4237L98.0067 22.8025C98.0067 22.8025 101.164 20.501 104.316 20.501C107.455 20.501 109.308 22.067 109.159 24.4516Z" fill="#0077BC"/>
<path fill-rule="evenodd" clip-rule="evenodd" d="M81.5888 36.9499H87.0637C87.0637 36.9499 90.0365 25.5549 90.0067 24.5405C89.9769 23.5203 89.7624 20.501 82.4407 20.501C82.4407 20.501 77.2101 20.6255 75.0297 21.3077L74.2016 25.1397H74.7318C74.7318 25.1397 77.2041 24.0304 80.3854 24.0304C83.5667 24.0304 84.3352 24.76 84.2756 25.6735C84.2161 26.593 84.1565 26.504 84.1565 26.504C84.1565 26.504 70.8773 25.8752 70.7582 33.1773C70.7582 33.1773 70.1744 37.377 76.0603 37.377C76.0603 37.377 79.0033 37.4126 81.9463 35.2238L81.5888 36.9499ZM76.519 32.4358C76.5488 29.1733 83.4058 29.4224 83.4058 29.4224L82.6135 32.7146C80.9335 34.0018 79.1403 33.9899 79.1403 33.9899C76.1437 34.1382 76.519 32.4358 76.519 32.4358Z" fill="#0077BC"/>
<path fill-rule="evenodd" clip-rule="evenodd" d="M69.6976 25.8691C67.2193 25.8691 65.718 26.4978 65.718 26.4978L63.1266 37.1158H57.5742L61.5717 21.266H67.0763L66.5223 23.5438C66.5223 23.5438 69.9836 20.6491 74.1121 21.2422L72.8491 26.1894C72.8432 26.1894 72.17 25.8691 69.6976 25.8691Z" fill="#0077BC"/>
<path fill-rule="evenodd" clip-rule="evenodd" d="M55.0105 30.3899C55.0105 30.3899 58.3645 30.0874 58.3645 26.4452C58.3645 22.8031 55.5347 20.9346 50.882 20.9346C46.2292 20.9346 39.7535 22.7734 39.2828 30.8466C39.2828 30.8466 38.55 37.6148 47.9688 37.8403C47.9688 37.8403 53.4437 37.8047 55.773 36.4463L56.7739 32.3296H56.1781C56.1781 32.3296 53.6164 34.2278 49.8811 34.2278C46.1458 34.2278 44.5552 32.7863 44.7339 30.3958H55.0105V30.3899ZM49.6786 24.1437C53.122 24.1437 52.8301 26.1071 52.8301 26.5045C52.8301 26.902 52.7109 27.3825 52.7109 27.3825L45.2581 27.3528C45.2581 27.3528 46.2352 24.1437 49.6786 24.1437Z" fill="#0077BC"/>
<path fill-rule="evenodd" clip-rule="evenodd" d="M30.4531 37.122L36.0472 15.0557H41.6114L36.0472 37.122H30.4531Z" fill="#0077BC"/>
<path fill-rule="evenodd" clip-rule="evenodd" d="M20.2203 37.3477C26.4577 37.3477 31.7003 33.5395 31.7539 26.7594C31.8135 19.9734 24.0152 20.4183 24.0152 20.4183L23.6041 20.3887C14.8586 20.3887 12.2969 27.3289 12.2969 30.6804C12.2969 34.0259 13.9769 37.3477 20.2203 37.3477ZM23.2467 23.8884C23.2467 23.8884 25.9275 23.663 25.9275 26.7594C25.9275 29.8559 24.8611 33.8836 20.8577 33.8836C20.8577 33.8836 18.0637 34.1979 18.0637 30.6804C18.0637 27.1569 19.833 23.8647 23.0977 23.8647L23.2467 23.8884Z" fill="#0077BC"/>
<path fill-rule="evenodd" clip-rule="evenodd" d="M13.5593 19.279L9.38314 36.3568H3.35421L7.73293 19.3384H0.464844L1.5491 15.2217H21.7985L20.8036 19.279H13.5593Z" fill="#0077BC"/>
<path fill-rule="evenodd" clip-rule="evenodd" d="M121.587 20.501C121.587 20.501 125.656 20.5662 127.622 21.8712L126.407 26.1599H125.644C125.644 26.1599 124.227 24.1668 120.962 24.1668C117.697 24.1668 115.249 26.6167 115.249 29.9919C115.249 33.3671 117.554 33.7111 119.288 33.7111C121.021 33.7111 123.601 32.7858 124.375 31.7833H125.204L124.024 36.1491C124.024 36.1491 121.409 37.3651 117.346 37.3651C113.283 37.3651 109.398 35.3246 109.398 30.3537C109.398 25.3829 114.057 20.584 121.587 20.501Z" fill="#0077BC"/>
<path fill-rule="evenodd" clip-rule="evenodd" d="M138.474 20.9346C133.833 20.9346 127.345 22.7734 126.88 30.8407C126.88 30.8407 126.148 37.6089 135.56 37.8343C135.56 37.8343 141.035 37.7987 143.365 36.4403L144.366 32.3237H143.776C143.776 32.3237 141.214 34.2218 137.479 34.2218C133.743 34.2218 132.153 32.7804 132.332 30.3899H142.608C142.608 30.3899 145.962 30.0874 145.962 26.4452C145.962 22.8031 143.126 20.9346 138.474 20.9346ZM140.303 27.3825L132.856 27.3528C132.856 27.3528 133.833 24.1437 137.27 24.1437C140.714 24.1437 140.422 26.1071 140.422 26.5045C140.422 26.902 140.303 27.3825 140.303 27.3825Z" fill="#0077BC"/>
<path d="M112.752 12.119L111.745 14.8654H103.285V14.4739C105.775 12.2139 107.527 10.3691 108.54 8.93953C109.552 7.50997 110.065 6.19903 110.065 5.01267C110.065 4.1051 109.785 3.36362 109.231 2.78231C108.671 2.20099 108.009 1.91033 107.235 1.91033C106.532 1.91033 105.895 2.11794 105.335 2.52724C104.775 2.93653 104.357 3.54158 104.095 4.33051H103.702C103.881 3.03144 104.334 2.0349 105.06 1.34087C105.793 0.646852 106.699 0.296875 107.795 0.296875C108.957 0.296875 109.928 0.67058 110.708 1.41206C111.489 2.15353 111.876 3.03144 111.876 4.04578C111.876 4.76947 111.709 5.49315 111.369 6.21683C110.851 7.35574 110.005 8.5599 108.832 9.82931C107.074 11.7394 105.978 12.8901 105.543 13.2816H109.284C110.047 13.2816 110.577 13.252 110.887 13.1986C111.191 13.1452 111.471 13.0266 111.715 12.8545C111.959 12.6825 112.174 12.4393 112.358 12.1249H112.752V12.119Z" fill="#0077BC"/>
<path d="M112.699 7.81249C112.699 6.18717 112.949 4.78133 113.438 3.60683C113.926 2.43233 114.588 1.55442 115.404 0.979034C116.035 0.522284 116.691 0.296875 117.37 0.296875C118.466 0.296875 119.455 0.854466 120.331 1.96965C121.421 3.35176 121.969 5.22622 121.969 7.59301C121.969 9.24799 121.731 10.6538 121.248 11.8165C120.772 12.9732 120.158 13.8155 119.413 14.3375C118.669 14.8595 117.954 15.1205 117.263 15.1205C115.892 15.1205 114.755 14.3197 113.849 12.7122C113.086 11.3538 112.699 9.72253 112.699 7.81249ZM114.772 8.07349C114.772 10.0369 115.017 11.6444 115.499 12.8842C115.898 13.9282 116.5 14.4502 117.298 14.4502C117.68 14.4502 118.073 14.2782 118.484 13.9401C118.895 13.6019 119.205 13.0266 119.413 12.2317C119.735 11.0275 119.902 9.3251 119.902 7.1244C119.902 5.49908 119.735 4.14069 119.395 3.04924C119.139 2.24251 118.812 1.67306 118.412 1.33494C118.12 1.1036 117.775 0.984966 117.364 0.984966C116.887 0.984966 116.458 1.19851 116.083 1.6256C115.577 2.20692 115.231 3.12635 115.046 4.37203C114.868 5.62958 114.772 6.8634 114.772 8.07349Z" fill="#0077BC"/>
<path fill-rule="evenodd" clip-rule="evenodd" d="M143.311 12.8544C142.894 12.8544 142.548 12.8069 142.274 12.712C142 12.6171 141.869 12.4985 141.875 12.362L141.887 12.0536L141.917 11.7688L141.953 11.5197C142.197 12.1485 142.656 12.4629 143.347 12.4629C143.645 12.4629 143.901 12.3858 144.103 12.2256C144.324 12.0595 144.431 11.8282 144.431 11.5494C144.431 11.2884 144.312 11.057 144.073 10.8613C143.948 10.7545 143.716 10.6121 143.365 10.4283C142.531 9.9893 142.119 9.50882 142.119 8.97496C142.119 8.54193 142.304 8.22755 142.679 8.00807C142.983 7.83605 143.371 7.74707 143.847 7.74707C144.002 7.74707 144.187 7.75893 144.407 7.78266C144.663 7.81232 144.878 7.84791 145.051 7.88943L145.021 8.8148C144.747 8.35212 144.353 8.11484 143.841 8.11484C143.263 8.11484 142.977 8.34025 142.977 8.79107C142.977 9.14698 143.353 9.53848 144.109 9.95964L144.216 10.013C144.687 10.274 144.985 10.4935 145.128 10.6655C145.277 10.8613 145.354 11.0808 145.354 11.3418C145.354 11.7985 145.122 12.1781 144.669 12.4688C144.264 12.7239 143.811 12.8544 143.311 12.8544Z" fill="#0077BC"/>
<path fill-rule="evenodd" clip-rule="evenodd" d="M141.727 8.47683L141.119 8.44717C140.821 8.43531 140.613 8.53615 140.512 8.74969C140.404 8.96324 140.363 9.42592 140.369 10.1437L140.381 11.5139C140.386 11.8283 140.392 12.0359 140.404 12.1427C140.434 12.4393 140.512 12.635 140.619 12.7121H139.332C139.421 12.6469 139.481 12.5283 139.517 12.3444C139.552 12.1427 139.57 11.8105 139.57 11.336V9.95978C139.57 8.74376 139.493 8.0794 139.332 7.96669L140.178 7.83026C140.303 7.83026 140.363 7.98449 140.363 8.28108V8.39378C140.363 8.42344 140.369 8.45903 140.375 8.49462C140.714 7.98449 141.113 7.73535 141.566 7.73535C141.971 7.73535 142.174 7.87178 142.174 8.15058C142.174 8.25142 142.138 8.32853 142.061 8.38192C141.965 8.4531 141.858 8.48869 141.727 8.47683Z" fill="#0077BC"/>
<path fill-rule="evenodd" clip-rule="evenodd" d="M137.76 12.3978C137.79 12.5402 137.826 12.6648 137.867 12.7775L138.88 12.7122C138.755 12.6351 138.66 12.4512 138.588 12.1487C138.529 11.864 138.499 11.4428 138.499 10.8971L138.523 10.0904L138.529 9.58022L138.559 8.77942C138.57 8.41758 138.463 8.14472 138.237 7.9727C138.016 7.81254 137.659 7.73542 137.165 7.72949C136.694 7.73542 136.265 7.78881 135.878 7.90151C135.306 8.06761 135.026 8.33454 135.026 8.68452C135.026 8.95145 135.163 9.08788 135.437 9.08788C135.639 9.08788 135.812 8.92772 135.985 8.6074L136.104 8.37013C136.176 8.27522 136.271 8.20404 136.384 8.15065C136.503 8.1032 136.64 8.07947 136.789 8.07947C137.421 8.07947 137.736 8.40572 137.736 9.06415C137.736 9.38447 137.647 9.62174 137.474 9.77597C137.373 9.85901 137.129 9.98358 136.736 10.1497C136.14 10.4047 135.747 10.5886 135.568 10.7073C135.109 11.0039 134.883 11.3301 134.883 11.6979C134.883 12.0301 135.038 12.3029 135.347 12.5283C135.627 12.7359 135.949 12.8427 136.307 12.8427C136.956 12.8427 137.439 12.5402 137.736 11.9292C137.725 12.0834 137.736 12.2377 137.76 12.3978ZM137.701 10.1022V10.8674C137.701 11.7631 137.361 12.208 136.676 12.208C136.432 12.208 136.235 12.1487 136.068 12.0301C135.884 11.9055 135.794 11.7275 135.794 11.5021C135.794 11.164 136.039 10.8556 136.521 10.5886C136.658 10.5174 137.051 10.3514 137.701 10.1022Z" fill="#0077BC"/>
<path fill-rule="evenodd" clip-rule="evenodd" d="M132.671 9.59787C133.595 9.60973 134.167 9.57414 134.381 9.50889C134.578 9.45551 134.679 9.3428 134.679 9.17078C134.679 8.71996 134.494 8.36405 134.131 8.10305C133.809 7.85985 133.404 7.74121 132.921 7.74121C132.165 7.74121 131.575 7.99628 131.158 8.50048C130.771 8.96317 130.574 9.56821 130.574 10.3156C130.574 11.0393 130.759 11.6266 131.116 12.0892C131.515 12.5994 132.076 12.8485 132.796 12.8485C133.184 12.8485 133.559 12.7477 133.94 12.546C134.381 12.3028 134.601 12.0121 134.601 11.6621V11.5376C134.167 11.9587 133.684 12.1663 133.16 12.1663C132.647 12.1663 132.242 11.9884 131.95 11.6325C131.623 11.241 131.474 10.7664 131.504 10.197L131.521 9.87667C131.533 9.77582 131.557 9.67498 131.587 9.58007L132.022 9.59787H132.671ZM133.464 8.34032C133.648 8.48269 133.744 8.67844 133.744 8.90978C133.744 9.05214 133.684 9.15298 133.571 9.20637C133.458 9.25382 133.154 9.27755 132.647 9.27755L132.016 9.26569L131.754 9.25382H131.653C131.688 8.93351 131.813 8.66657 132.01 8.45303C132.23 8.21576 132.498 8.09712 132.82 8.09712C133.064 8.10898 133.279 8.1861 133.464 8.34032Z" fill="#0077BC"/>
<path fill-rule="evenodd" clip-rule="evenodd" d="M129.597 11.0449C128.811 12.9668 128.186 14.3074 127.721 15.0489C126.672 16.7217 125.54 17.564 124.325 17.564C124.009 17.564 123.706 17.4987 123.408 17.3801C123.032 17.2259 122.848 17.0242 122.848 16.7513C122.848 16.7335 122.86 16.7217 122.866 16.7039C123.086 16.8403 123.33 16.9471 123.604 17.0005C123.765 17.0301 123.926 17.0479 124.081 17.0479C124.748 17.0479 125.368 16.7632 125.791 16.3064C126.041 16.1997 126.279 16.0098 126.506 15.737C127.423 14.6277 127.882 13.6431 127.882 12.7829C127.882 12.5694 127.739 11.9347 127.453 10.8848C127.173 9.82296 126.821 8.70185 126.404 7.51549C126.16 6.83333 126.023 6.44776 125.981 6.35878C125.737 5.75374 125.517 5.42155 125.32 5.34444L126.506 5.20801H126.666C126.899 5.20801 127.334 6.32319 127.953 8.54762L128.317 9.84669C128.483 10.4517 128.656 11.0331 128.829 11.5966C129.347 10.256 129.758 9.06369 130.056 8.00783C130.366 6.95789 130.521 6.25794 130.521 5.91983C130.521 5.77746 130.509 5.66476 130.491 5.58764C130.473 5.5046 130.431 5.41562 130.372 5.30885H132.159C131.79 5.72408 131.224 6.90451 130.467 8.86201C130.122 9.75771 129.83 10.4814 129.597 11.0449Z" fill="#0077BC"/>
<path fill-rule="evenodd" clip-rule="evenodd" d="M124.159 15.9502C124.183 15.9443 124.212 15.9384 124.236 15.9265L124.457 15.8375C124.492 15.8197 124.534 15.8019 124.564 15.7782C124.957 15.5469 125.225 15.1672 125.32 14.7401C125.499 13.8859 124.951 13.0436 124.099 12.8657C123.986 12.8419 123.879 12.8301 123.771 12.8301C123.033 12.8301 122.383 13.358 122.228 14.0817C122.086 14.7757 122.413 15.4697 123.045 15.8079C123.098 15.8375 123.158 15.8612 123.217 15.885C123.289 15.9146 123.366 15.9384 123.456 15.9621C123.634 16.0036 123.837 15.9977 124.022 15.9739L124.159 15.9502Z" fill="#0077BC"/>
<path fill-rule="evenodd" clip-rule="evenodd" d="M124.159 15.9502C124.183 15.9443 124.212 15.9384 124.236 15.9265L124.457 15.8375C124.492 15.8197 124.534 15.8019 124.564 15.7782C124.957 15.5469 125.225 15.1672 125.32 14.7401C125.499 13.8859 124.951 13.0436 124.099 12.8657C123.986 12.8419 123.879 12.8301 123.771 12.8301C123.033 12.8301 122.383 13.358 122.228 14.0817C122.086 14.7757 122.413 15.4697 123.045 15.8079C123.098 15.8375 123.158 15.8612 123.217 15.885C123.289 15.9146 123.366 15.9384 123.456 15.9621C123.634 16.0036 123.837 15.9977 124.022 15.9739L124.159 15.9502Z" fill="#0077BC"/>
</svg>
