<svg width="20" height="20" viewBox="0 0 20 20" fill="none" xmlns="http://www.w3.org/2000/svg">
<path d="M20 10C20 15.5228 15.5228 20 10 20C8.0744 20 6.27592 19.4557 4.75 18.5127C4.57988 18.4075 4.25 18.1826 4.25 18.1826L0.108567 19.75L1.75 15.653C1.75 15.653 1.58048 15.4 1.5 15.2704C0.549133 13.7401 0 11.9342 0 10C0 4.47715 4.47715 0 10 0C15.5228 0 20 4.47715 20 10Z" fill="#7D3DAF"/>
<path fill-rule="evenodd" clip-rule="evenodd" d="M10.7869 5.01585C11.3499 5.08553 11.8049 5.22002 12.3042 5.46148C12.7952 5.6997 13.1095 5.92495 13.5252 6.33493C13.9148 6.72224 14.1308 7.01558 14.3599 7.47093C14.6791 8.10619 14.8608 8.86135 14.8919 9.69267C14.9034 9.97625 14.8952 10.0395 14.8297 10.1205C14.7053 10.2777 14.4319 10.2517 14.3387 10.0751C14.3092 10.0168 14.301 9.96655 14.2912 9.73966C14.2748 9.39125 14.2503 9.16601 14.2012 8.89699C14.0081 7.84204 13.4974 6.99936 12.6822 6.3949C12.003 5.8893 11.3008 5.64297 10.381 5.5895C10.07 5.57168 10.016 5.56035 9.9456 5.50687C9.81463 5.40477 9.80811 5.16495 9.93413 5.05313C10.0111 4.98344 10.0651 4.97371 10.3319 4.98181C10.471 4.98667 10.6756 5.00289 10.7869 5.01585ZM7.04525 5.19087C7.10255 5.21031 7.19094 5.25568 7.24168 5.28809C7.55264 5.49229 8.41849 6.58936 8.70166 7.13711C8.86368 7.44986 8.9177 7.6816 8.86699 7.85337C8.81458 8.03811 8.72786 8.13535 8.33994 8.44487C8.18444 8.56964 8.03875 8.69767 8.01585 8.73171C7.95693 8.81598 7.90945 8.98126 7.90945 9.09793C7.91111 9.36856 8.08788 9.85959 8.32031 10.2372C8.50033 10.5305 8.82275 10.9064 9.14193 11.1949C9.51675 11.5352 9.84737 11.7669 10.2206 11.9501C10.7001 12.1866 10.9931 12.2466 11.2076 12.1478C11.2616 12.1235 11.3188 12.091 11.3369 12.0765C11.3532 12.0619 11.4792 11.9095 11.6167 11.741C11.8819 11.4104 11.9425 11.357 12.1241 11.2954C12.3549 11.2176 12.5906 11.2386 12.8279 11.3586C13.008 11.4509 13.4008 11.6924 13.6545 11.8674C13.9884 12.0992 14.702 12.6761 14.7986 12.7911C14.9688 12.9986 14.9983 13.2643 14.8837 13.5576C14.7626 13.8671 14.2912 14.4473 13.9622 14.6952C13.6643 14.9189 13.4532 15.0047 13.1749 15.0177C12.9458 15.029 12.8509 15.0096 12.5579 14.8897C10.2599 13.9514 8.42505 12.5513 6.96831 10.6277C6.20723 9.62299 5.62781 8.58101 5.2317 7.50012C5.00093 6.86974 4.98949 6.59585 5.17933 6.27337C5.26118 6.13725 5.60981 5.80018 5.8635 5.61221C6.2858 5.30106 6.48057 5.18599 6.63606 5.15359C6.74245 5.1309 6.92739 5.14873 7.04525 5.19087ZM10.8998 6.19071C11.8934 6.33493 12.6626 6.79194 13.1667 7.53414C13.4499 7.95223 13.6267 8.44324 13.6872 8.96991C13.7085 9.16275 13.7085 9.51441 13.6856 9.57276C13.6643 9.62784 13.5956 9.70239 13.5366 9.73317C13.4728 9.76558 13.337 9.76236 13.2617 9.72345C13.1356 9.66026 13.098 9.55979 13.098 9.28754C13.098 8.86784 12.9883 8.42542 12.7985 8.08186C12.5824 7.6897 12.2682 7.36561 11.8852 7.14035C11.5562 6.94588 11.0701 6.80167 10.6265 6.76602C10.4661 6.75304 10.3777 6.72063 10.3171 6.65095C10.2239 6.54561 10.214 6.40301 10.2926 6.28472C10.3777 6.15345 10.5086 6.13237 10.8998 6.19071ZM11.2485 7.41421C11.5709 7.48227 11.8181 7.60382 12.0292 7.7999C12.3009 8.05431 12.4499 8.36222 12.5153 8.80462C12.5595 9.09308 12.5415 9.2065 12.4384 9.3005C12.3418 9.388 12.1634 9.39124 12.0554 9.30859C11.9768 9.25025 11.9523 9.18868 11.9343 9.02178C11.913 8.79976 11.8737 8.64419 11.8066 8.49996C11.6626 8.19368 11.4089 8.03487 10.98 7.98302C10.7787 7.9587 10.7181 7.93602 10.6527 7.85987C10.5332 7.71888 10.579 7.49038 10.7443 7.40611C10.8065 7.37532 10.8327 7.37208 10.9702 7.38019C11.0553 7.38505 11.1814 7.39961 11.2485 7.41421Z" fill="white"/>
</svg>
