<svg width="20" height="20" viewBox="0 0 20 20" fill="none" xmlns="http://www.w3.org/2000/svg">
<path d="M20 10C20 15.5228 15.5228 20 10 20C8.0744 20 6.27592 19.4557 4.75 18.5127C4.57988 18.4075 4.25 18.1826 4.25 18.1826L0.108567 19.75L1.75 15.653C1.75 15.653 1.58048 15.4 1.5 15.2704C0.549133 13.7401 0 11.9342 0 10C0 4.47715 4.47715 0 10 0C15.5228 0 20 4.47715 20 10Z" fill="#40C351"/>
<path fill-rule="evenodd" clip-rule="evenodd" d="M14.4926 11.9073C14.2466 11.7879 13.037 11.2109 12.8114 11.1312C12.5859 11.0517 12.4219 11.0119 12.2579 11.2506C12.0939 11.4893 11.6223 12.0267 11.4788 12.1859C11.3353 12.345 11.1918 12.365 10.9457 12.2455C10.6997 12.1262 9.90693 11.8743 8.9672 11.0617C8.23579 10.4292 7.74199 9.64815 7.59851 9.40935C7.45495 9.17056 7.58314 9.04148 7.70633 8.92257C7.81706 8.81567 7.95244 8.64395 8.07542 8.50465C8.19843 8.36541 8.23944 8.26585 8.32145 8.10677C8.40346 7.94752 8.36246 7.80828 8.30091 7.68892C8.23944 7.56952 7.74737 6.39544 7.54235 5.91782C7.34263 5.45276 7.1398 5.51576 6.98877 5.50838C6.84543 5.50148 6.68123 5.5 6.51724 5.5C6.35322 5.5 6.08665 5.5597 5.86108 5.79842C5.63562 6.03721 5 6.61432 5 7.78827C5 8.96239 5.88158 10.0965 6.00464 10.2557C6.12769 10.415 7.73951 12.8241 10.2077 13.8573C10.7947 14.1031 11.253 14.2498 11.6103 14.3597C12.1997 14.5413 12.736 14.5157 13.16 14.4542C13.6327 14.3858 14.6156 13.8773 14.8207 13.3201C15.0257 12.7629 15.0257 12.2853 14.9641 12.1859C14.9027 12.0864 14.7386 12.0267 14.4926 11.9073Z" fill="white"/>
</svg>
